<?xml version="1.0" encoding="utf-8"?>
<!-- Generator: Adobe Illustrator 25.0.0, SVG Export Plug-In . SVG Version: 6.00 Build 0)  -->
<svg version="1.1" id="Calque_1" xmlns="http://www.w3.org/2000/svg" xmlns:xlink="http://www.w3.org/1999/xlink" x="0px" y="0px"
	 viewBox="0 0 38.1 134.8" style="enable-background:new 0 0 38.1 134.8;" xml:space="preserve">
<style type="text/css">
	.st0{fill:#7CBB48;}
</style>
<path class="st0" d="M15.8,39.4c0,0,1.3-0.9,3.1-0.9c1.1,0,2.5,0.5,3.3,0.8c1.1,0.6,2,3,1.7,4.5c-0.3,2.3-0.9,3.3-2.3,4.2
	c-1.6,1.1-3.8,0.8-5.3,0c-2-0.9-3-2.3-2.8-4.2C13.7,41.8,15.8,39.4,15.8,39.4z"/>
<path class="st0" d="M26.8,67.8c0,0-3-2.5-3.3-3c-0.3-0.3-2-3.3-3.3-4.9c0.3-0.6,0.5-2.5,0.5-2.8c0.2-1.4,0.2-3.9,0.2-4.2
	c-0.2-0.5-0.3-0.9-0.9-1.4c-1.3-0.6-5.3-1.1-5.3-1.1c-1.1-0.5-3.4,1.4-4.4,1.6c-0.9,0.3-5.8,5.5-5.8,5.5S3,59.8,3,60.7
	c0,0.9-1.7,7.7-1.7,7.7l-0.8,2.3l5.2,0.9v-0.6l2-9.4c0,0,1.6-1.9,2.8-2.3c1.3-0.5,0.5,0,0.5,0s-0.9,3.3-1.9,5.3
	c-0.6,1.4-1.7,7-1.7,7s-2,11.7-2.2,12.5C5,85.2,1,93.3,0.3,94.1C-0.1,95,0,96.3,0,96.3h7c0,0,5.2-11.9,5.2-12.5
	c0-0.5,0.2-1.7,0.8-4.5c0.6,0.5,0.8,0.6,0.8,0.6s3.6,2.3,4.2,2.8c0.6,0.6,1.1,1.4,1.1,2.3c0,0.8-0.5,8.9-0.5,9.6
	c-0.2,0.5-0.5,1.7-0.5,1.7s7,0.2,6.6-0.2c-0.5-0.3,0-2,0-2S24.5,82,24.6,81.7c0.3-1.6-0.9-3.1-0.9-3.1s-6-5.5-6.6-5.8
	c-0.5-0.3,0-1.6,0-1.6s0.3-2.3,1.3-5l5.3,5.3c0,0,3-2.2,3.3-2.7C27.1,68.2,26.8,67.8,26.8,67.8z"/>
</svg>
