<?xml version="1.0" encoding="utf-8"?>
<!-- Generator: Adobe Illustrator 25.0.0, SVG Export Plug-In . SVG Version: 6.00 Build 0)  -->
<svg version="1.1" id="Calque_1" xmlns="http://www.w3.org/2000/svg" xmlns:xlink="http://www.w3.org/1999/xlink" x="0px" y="0px"
	 viewBox="0 0 27.4 114.5" style="enable-background:new 0 0 27.4 114.5;" xml:space="preserve">
<style type="text/css">
	.st0{fill:#195A74;}
</style>
<path class="st0" d="M2.9,49.5h15.3c1.6,0,2.9,1.3,2.9,2.9v9.7c0,1.6-1.3,2.9-2.9,2.9H2.9C1.3,65,0,63.7,0,62.1v-9.7
	C0,50.6,1.3,49.5,2.9,49.5z"/>
<path class="st0" d="M22.2,56.1c0-0.6,0.3-1.4,0.8-1.9l2.7-2.9c0.6-0.6,1.6-0.2,1.6,0.6v10.6c0,0.8-1,1.3-1.6,0.6l-2.6-2.6
	c-0.5-0.5-0.8-1.3-0.8-2.1v-2.4H22.2z"/>
</svg>
