<?xml version="1.0" encoding="utf-8"?>
<!-- Generator: Adobe Illustrator 25.0.0, SVG Export Plug-In . SVG Version: 6.00 Build 0)  -->
<svg version="1.1" id="Calque_1" xmlns="http://www.w3.org/2000/svg" xmlns:xlink="http://www.w3.org/1999/xlink" x="0px" y="0px"
	 viewBox="0 0 101.5 100" style="enable-background:new 0 0 101.5 100;" xml:space="preserve">
<style type="text/css">
	.st0{clip-path:url(#SVGID_2_);}
	.st1{fill:#010202;}
</style>
<g>
	<defs>
		<rect id="SVGID_1_" x="1.4" width="100" height="100"/>
	</defs>
	<clipPath id="SVGID_2_">
		<use xlink:href="#SVGID_1_"  style="overflow:visible;"/>
	</clipPath>
	<g class="st0">
		<path class="st1" d="M58.1,15.4C57.5,11.9,47.1,3,47.1,3S38.9,0,36,0C26,0,15.6,6.1,15.6,15.4c0,2.2,3.4,12.7,4.3,14.2
			s8,10.7,10,12.2c2,1.5,6,7.7,6,7.7l7.7-7.7c0,0,10.6-12.4,11.8-14.4C56.6,25.3,58.6,18.9,58.1,15.4z M40.3,24.3
			c-2.3,0.2-10,1.2-10.9-1.5s-2-7.5,0-9.4s5.7-2.6,5.7-2.6s10.6,1.6,10.3,4.8C45.2,18.9,42.6,24.1,40.3,24.3z"/>
		<path class="st1" d="M62.6,31.9C58.6,36.7,46.8,49,46.8,49L35.6,59c0,0-5.8-8-8.7-10S13.6,35.2,12.4,33.3
			c-0.2-0.3-0.4-0.7-0.7-1.4H1.4V100h100.2V31.9H62.6z M15.4,88.4l-3.8-7.2l9.1-4.4l5.3,5.7L15.4,88.4z M38.5,74.2L33.4,69l8.8-4.1
			l5,4.5L38.5,74.2z M72.2,41.8h4.4l2.2,3.9l-6.8,3.5l-4.6-3.5L72.2,41.8z M51.4,56.3l6.7-4.4l4.4,3.6l-6.2,5.2L51.4,56.3z M85,92.2
			l-3.6-3.7c0,0-3.7-4.2-4.5-4.3s-8.4,8.2-8.4,8.2l-6.1-5.3c0,0,8.9-7.2,9.1-7.7s-8.2-7.1-8.2-7.1l5.7-4.8c0,0,4.1,4.3,4.6,4.6
			c0.6,0.4,3.1,2.4,3.7,2.5c0.6,0.1,3-2.4,3-2.6l4.7-4.3l5.6,5.3c0,0-1.9,1.2-3.2,2.3c-1.3,1.1-4.5,3.5-4.6,4s0.1,0.9,0.5,1.3
			c0.4,0.3,7,6.3,7.6,6.2C91.5,86.9,85,92.2,85,92.2z"/>
	</g>
</g>
</svg>
