<?xml version="1.0" encoding="utf-8"?>
<!-- Generator: Adobe Illustrator 25.0.0, SVG Export Plug-In . SVG Version: 6.00 Build 0)  -->
<svg version="1.1" id="Calque_1" xmlns="http://www.w3.org/2000/svg" xmlns:xlink="http://www.w3.org/1999/xlink" x="0px" y="0px"
	 viewBox="0 0 100 100" style="enable-background:new 0 0 100 100;" xml:space="preserve">
<style type="text/css">
	.st0{clip-path:url(#SVGID_2_);}
	.st1{fill:#010202;}
</style>
<g>
	<defs>
		<rect id="SVGID_1_" width="100" height="100"/>
	</defs>
	<clipPath id="SVGID_2_">
		<use xlink:href="#SVGID_1_"  style="overflow:visible;"/>
	</clipPath>
	<g class="st0">
		<path class="st1" d="M92.9,85.2l3.1-3.1l3.7,3.9c0,0-1.3,0.9-2.1,1.7c-0.9,0.8-3,2.5-3.1,2.9c-0.1,0.3,0.1,0.7,0.3,0.9
			c0.3,0.2,4.6,4.5,5,4.5c0.4,0-3.9,3.8-3.9,3.8l-2.4-2.6c0,0-2.4-3-3-3.1c-0.5-0.1-5.6,6-5.6,6l-4-3.8c0,0,5.9-5.2,6-5.6
			c0.1-0.3-5.5-5.2-5.5-5.2l3.8-3.5c0,0,2.7,3.1,3.1,3.3c0.4,0.3,2,1.7,2.4,1.8C91.4,87.2,93,85.3,92.9,85.2z"/>
		<path class="st1" d="M34.5,13.5C34,10.4,25.5,2.6,25.5,2.6S18.9,0,16.5,0S4.9,5,4.9,5S0,11.6,0,13.5s2.8,11.1,3.5,12.4
			c0.7,1.3,6.5,9.4,8.2,10.7s4.9,6.8,4.9,6.8l6.3-6.8c0,0,8.6-10.9,9.5-12.6C33.3,22.2,34.9,16.6,34.5,13.5z M20,21.3
			c-1.9,0.2-8.1,1.1-8.8-1.3c-0.7-2.4-1.6-6.5,0-8.3s4.7-2.3,4.7-2.3s8.6,1.4,8.4,4.2C24,16.5,21.9,21.1,20,21.3z"/>
		<path class="st1" d="M27.1,42.1l-4.2,5v3.5l4.2,1.7c0,0,4.4,2.4,7.5,2s8.4-4.8,8.4-4.8l4-3.2c0,0,4.4-1.7,5.6,0.2
			c1.2,2,0,6.3,0,6.3l-8.6,5.7l-5.9,7c0,0-4.3,4.8-3.4,7.7c0.9,2.9,2.3,8.8,2.3,8.8s5.3,3.3,7.2,3.5c1.9,0.2,5.1,1.1,5.1,1.1
			l7.2-3.5c0,0,0.7-3.3,3-3.7c2.3-0.4,6.1-1.1,6.1-1.1l3.3,3.7l5.4,4.6l5.3-2.2l1.7-4.6l-4-3.9L69.5,70c0,0-4.9-2.6-8.6-0.9
			c-3.7,1.7-10.7,7.2-10.7,7.2s-5.3,4.1-7,2.2s-2.1-5.7-0.7-7.4c1.4-1.7,9.6-6.8,9.6-6.8s8.1-6.7,8.3-7.4c0.2-0.6,3.5-8.1,2.6-10
			c-0.9-2-3.3-7.8-4-7.8c-0.7,0-7-2.6-7-2.6l-8.7,2.4c0,0-2.6,4.6-5.6,5.9c-3,1.3-7.9,1.1-7.9,1.1L27.1,42.1z"/>
	</g>
</g>
</svg>
