<?xml version="1.0" encoding="utf-8"?>
<!-- Generator: Adobe Illustrator 24.0.1, SVG Export Plug-In . SVG Version: 6.00 Build 0)  -->
<svg version="1.1" id="Layer_1" xmlns="http://www.w3.org/2000/svg" xmlns:xlink="http://www.w3.org/1999/xlink" x="0px" y="0px"
	 viewBox="0 0 100 100" style="enable-background:new 0 0 100 100;" xml:space="preserve">
<style type="text/css">
	.st0{fill:#79C143;}
</style>
<path class="st0" d="M0,3.53V1.42c0-0.38,0.15-0.74,0.42-1l0,0c0.5-0.51,1.3-0.56,1.87-0.12l5.38,4.15c0.04,0.03,0.08,0.06,0.11,0.1
	l52.19,42.61c0,0,3.12,1.04,3.38,0c0.26-1.04,0-4.16,0-4.16s3.38-11.44,5.2-12.48s2.34-6.5,2.34-6.5l1.82-4.94l2.86-1.56l1.82,6.5
	l2.6,1.04l1.3-4.94l2.08,2.86v4.68v3.38h2.86l2.34,1.53v3.93c0,0,6.76,1.82,7.8,1.82s3.64,0,3.64,0v2.34c0,0-0.52,3.12-1.3,3.64
	c-0.78,0.52-3.64,5.46-6.5,5.72c-2.86,0.26-4.94,2.08-4.94,2.08h-3.9c0,0-1.04,4.42-1.04,5.72c0,1.3-1.82,9.1-1.82,9.1
	s-0.78,2.86,1.82,2.86s7.28,2.08,7.28,2.08s1.82,1.56,1.82,3.64s4.42,11.7,4.42,11.7l0.78,2.86l-4.16,2.86H88.3
	c0,0-1.56-5.2-3.64-8.32s-4.94-4.42-4.94-4.42l-2.34-0.78l-0.26,5.98l0.78,12.74l-7.8,1.56h-2.6l-0.26-9.62l-1.56-4.68
	c0,0,1.04-6.76-0.52-8.06s-8.58-1.82-8.58-1.82s-5.46-2.6-7.02-1.82s-3.64,2.86-6.5,5.2s-9.88,6.5-9.88,6.5s-3.38,2.34-3.38,3.64
	s1.3,7.54,1.3,7.54l0.78,3.12H20.71l1.3-10.4l-2.08-6.24l1.82-2.08c0,0-2.86-1.04-3.9,0.26c-1.04,1.3-2.86,9.62-2.86,9.62L5.37,89.8
	l3.12-7.28c0,0,0.26-5.72,1.56-8.06s8.84-4.16,9.62-5.72c0.78-1.56,0.78-6.5,2.08-8.58s2.86-3.12,1.3-3.9s-8.32-1.56-9.36-3.12
	c-1.04-1.56-5.72-7.8-5.72-7.8S10.05,43,11.09,43s3.12,2.86,3.12,2.86s2.08,3.64,4.94,3.64s13.52,0.78,13.52,0.78l4.94-1.82
	l14.23-0.28c0,0-8.11-10.52-11.36-11.56S20.55,20.16,20.55,20.16L6.93,8.84C6.85,8.75,6.76,8.68,6.66,8.62L0.65,4.73
	C0.24,4.46,0,4.01,0,3.53z"/>
</svg>
