<?xml version="1.0" encoding="utf-8"?>
<!-- Generator: Adobe Illustrator 24.0.1, SVG Export Plug-In . SVG Version: 6.00 Build 0)  -->
<svg version="1.1" id="Layer_1" xmlns="http://www.w3.org/2000/svg" xmlns:xlink="http://www.w3.org/1999/xlink" x="0px" y="0px"
	 viewBox="0 0 100 100" style="enable-background:new 0 0 100 100;" xml:space="preserve">
<path d="M49.76,20.91c0,0,1.97,2.19,3.06,2.85c1.09,0.66,1.53,5.03,1.53,5.03l-2.3,4.6h-4.71c0,0-3.94-1.75-3.94-2.63
	c0-0.88,0-5.47,0-5.47S44.73,21.78,49.76,20.91z"/>
<path d="M98.62,39.7c-2.55-10.5-12.3-21.23-12.3-21.23s-8.97-7.44-11.16-9.85c-2.19-2.41-13.21-6.16-13.92-6.23
	C59.54,2.2,48.89,0.52,48.89,0.52S38.76,1.59,33.57,3c-2.35,0.64-15.19,7.33-20.57,13.06C9.8,19.45,2.05,34.66,2.05,34.66
	s-3.28,13.79-1.53,26.92c1.75,13.13,8.54,16.85,10.94,21.67c2.41,4.82,13.35,9.41,20.14,14.01c6.79,4.6,30.48,2.02,30.48,2.02
	s13.81-4.47,22.05-10.97c6.62-5.22,14.32-19.16,15.11-24.1C100.51,56.17,100.12,45.86,98.62,39.7z M19.65,74.34
	c-0.21-1.03-4.95-5.98-5.57-8.46c-0.62-2.47-4.12-12.58-3.71-17.32c0.41-4.74,2.06-14.02,5.57-18.77
	c3.51-4.74,10.93-13.82,18.56-15.88c7.63-2.06,14.02-2.27,14.02-2.27c4.12,0.21,12.58,1.86,12.58,1.86s8.46,2.89,8.46,3.51
	c0,0.62,1.86,0.82,0,3.3c-1.86,2.47-12.37,14.64-12.37,14.64l-4.36,4.45c0-1.3,0-2.52,0-2.85c0-0.77-3.94-1.64-3.94-1.64
	s-2.63,0.44-3.74,0.88c-1.12,0.44-1.73,2.41-1.73,2.41s0.57,7.18,0.33,10.49l-1.87,1.91l-1.18-8.72
	c-8.32,2.63-10.32,6.6-12.95,10.11c-2.6,3.46-1.18,11-0.72,14.77l-2.01,2.23C25.01,68.98,19.86,75.37,19.65,74.34z M50.42,61.84
	c0,0,8.32-1.31,10.94-1.27c1.15,0.02,1.96,1.4,2.45,2.99l-7.04-0.85c0,0-0.73,1.97-1.17,4.18c-0.44,2.21-4.52,3.05-6.71,4.8
	c-1.94,1.55-7.14,0.35-10.13-1.92c1.69-1.9,2.92-3.26,2.92-3.26l5.28-5.19C48.51,61.68,50.42,61.84,50.42,61.84z M33.78,58.99
	c0-1.75,1.09-5.91,3.5-7.22c2.15-1.17,4.12-1.12,4.52-1.1l-3.59,3.67l-4.42,4.9C33.79,59.15,33.78,59.06,33.78,58.99z M88.75,53.81
	c-0.51,4.73-2.34,13.98-5.93,18.65c-3.6,4.67-11.2,13.6-18.87,15.51s-14.06,1.99-14.06,1.99c-4.12-0.29-12.54-2.1-12.54-2.1
	s-8.4-3.05-8.38-3.67c0.01-0.62-1.84-0.86,0.06-3.3c0.68-0.87,2.49-2.96,4.53-5.28c0.85,0.77,1.62,1.45,2.2,1.97
	c2.41,2.19,8.64,1.57,13.13,1.57s11.61-6.82,12.93-7.91c1.08-0.9,1.9-5.47,2.16-7.09c0.47,1.9,0.5,3.91,0.09,4.25
	c-0.8,0.66,2.77,7.22,2.77,7.22s3.94,0.88,4.82,1.31c0.88,0.44,3.94-4.82,3.94-4.82l-3.5-3.94c0,0-4.16-9.85-4.6-10.73
	c-0.44-0.88-2.41-3.28-2.41-3.28H54.36c0,0,0.01-0.06,0.02-0.15l2.56-2.51c2.45-0.16,7.12,0.26,7.12,0.26v-5.25l-3.05,0.99
	l0.01-0.01l13.48-14.38c0,0,5.28-6.29,5.47-5.26c0.19,1.03,4.83,6.08,5.4,8.56C85.94,38.91,89.25,49.08,88.75,53.81z"/>
</svg>
