<svg id="Calque_1" data-name="Calque 1" xmlns="http://www.w3.org/2000/svg" viewBox="0 0 35.18 36.96"><defs><style>.cls-1{fill:#424242;}</style></defs><title>accueil</title><path class="cls-1" d="M1.7,18.55H3.86l5.27-5.09L14.65,9.3s2.2-2.09,3.58-2.09S23,10.14,23,10.14l8.59,5.28,2.23,1s1.34-.5,1.69-1.39-1.69-3.28-1.69-3.28l-10.09-6S19.44,3,18.29,2.2c-1.31-.87-6.44,4-6.44,4L5.36,11.64l-4.95,5S.13,17.45,1.7,18.55Z" transform="translate(-0.39 -0.4)"/><path class="cls-1" d="M6.27,8.41,9.17,6.1l1.7-1.44V.4h-6V9.77Z" transform="translate(-0.39 -0.4)"/><path class="cls-1" d="M30.56,37.36l-.82-14,.61-6.72L18,9.3,7,17.66,7,24.29,6,37.36h8.32l.73-7.31-.36-4.8,5.19-.8,2.33.53.51,6.31v6.07Z" transform="translate(-0.39 -0.4)"/></svg>