<svg id="Calque_1" data-name="Calque 1" xmlns="http://www.w3.org/2000/svg" viewBox="0 0 23.41 30"><defs><style>.cls-1{fill:#424242;}</style></defs><title>alerte_sonore_activé</title><path class="cls-1" d="M10.84.9l-.15,2.25-.94.54-1.1.38a43.32,43.32,0,0,0-3.29,3A15.57,15.57,0,0,0,3.9,10.71v3.35S5.62,19.32,5,20.2s-2.76,2.91-2.76,2.91S.92,24.06,1,24.51A11.68,11.68,0,0,1,1,26l1.1.31L10.84,26l8.58.31h4s1.22-.44,1-1.52-1.77-2.07-1.77-2.07-2.88-2.25-2.88-3.33,1.35-4.28,1.57-5.42.09-5.06-.7-6.33a23.69,23.69,0,0,0-2.19-2.78L16.1,3.53,15,3.34,14.83,2,14.31.46A3,3,0,0,0,12.68,0,7.08,7.08,0,0,0,10.84.9Z" transform="translate(-0.97)"/><path class="cls-1" d="M9.75,27.07h3.59l2.27.3s-.6,1.85-1.12,2-1.79.77-2.07.55-2.07-.73-2.23-1.42S9.75,27.07,9.75,27.07Z" transform="translate(-0.97)"/></svg>