<svg id="Calque_1" data-name="Calque 1" xmlns="http://www.w3.org/2000/svg" viewBox="0 0 157 125"><defs><style>.cls-1{fill:#424242;fill-opacity:0.06;stroke:#000;}</style></defs><title>AR</title><rect class="cls-1" x="0.5" y="0.5" width="156" height="124" rx="29.5"/><path d="M74.53,79.63S64.4,57.2,64,56.6s-8.37-17-8.37-17.82-1.77-2.94-1.77-2.94L50.3,37,42.88,51.19,33.55,70.81l-6.39,15H41.7l2.65-8.21s.22-1.61,1.54-1.81,11.68,0,11.68,0S60,76,60,76.62s2.72,5.07,2.72,5.07l1,4.14H78l-1.1-2.59ZM58.91,68.14l-11.68.2h-2l1.64-3.54s3.52-11,4.18-12.82,2.77,0,2.77,0,5.64,13.36,6.52,14.75S58.91,68.14,58.91,68.14Z" transform="translate(-1.16 -1.06)"/><path d="M125.07,87.19l-5.8-7.61-9.48-10.76a10.41,10.41,0,0,1-.74-2.45c0-.7,4.55-3.07,6-5.1s3.46-7.47,3.38-8.58A49.11,49.11,0,0,0,117.14,47c-.52-2-5.51-6.15-6.62-7.2s-4.84-2.16-4.84-2.16l-16.83.49s-7-.21-8,0S79.52,40,79.52,40s.3,7.83.66,8.94S81,67.71,81.29,70.07s-1,15.58-1,15.58l-.44,1.88H92.09l-.23-1.32L91.5,76.5s.44-4.68.88-5.38,4.41-.91,6-.49,4,4.81,4,4.81l7.78,9.36,1.16,2.38h13.83ZM106.38,58l-2,3-1.33.28s-11.57.22-12.23.18-1.22-1.12-1.22-1.12V45.68l1.17-1s8.42-.63,10.61,0a6,6,0,0,1,3.08,1.79s2.38,2.66,2.65,3.77A13.7,13.7,0,0,1,106.38,58Z" transform="translate(-1.16 -1.06)"/><path d="M123.46,29.67V25.06h7.06a6.45,6.45,0,0,0-.59,2.47,26.71,26.71,0,0,0,.08,4.41,1.29,1.29,0,0,0,1.1.47c.44,0,7,.33,7.27,0s.29,5.75.29,5.75l-3.3-.4s-4.1.07-4.62.4,0,8.48,0,8.48h-7.28s.81-8.14.59-8.48-8.75-.07-8.75-.07V32.28s7,.53,7.42.33,1.17-.6,1.17-1A14.23,14.23,0,0,0,123.46,29.67Z" transform="translate(-1.16 -1.06)"/></svg>