<svg id="Calque_1" data-name="Calque 1" xmlns="http://www.w3.org/2000/svg" viewBox="0 0 32.22 35.75"><defs><style>.cls-1{fill:#79c143;}</style></defs><title>automne-vert-petit</title><path class="cls-1" d="M30.56,27.48l-2.42-1.31,4.18-5.55s1.57-6.32,1.58-6.5l-.31-1.33-5,.93L25.33,15.1,23.25,6.79,19.54,1.47,17.78-.1,16,1.48,12.33,6.8l-2.08,8.31L6.93,13.73,2,12.8l-.3,1.32c0,.18,1.57,6.51,1.57,6.51l4.18,5.54L5,27.48s-1.91,1.72-1.91,2,2.26,2.27,2.26,2.27l6.25,2,3.33-.57s1-.37,1.39-.57v1.54l1.46,1.5,1.46-1.5V32.62c.43.21,1.38.57,1.38.57l3.33.57,6.25-2s2.27-1.95,2.27-2.27S30.56,27.48,30.56,27.48Z" transform="translate(-1.68 0.1)"/></svg>