<?xml version="1.0" encoding="utf-8"?>
<!-- Generator: Adobe Illustrator 24.0.2, SVG Export Plug-In . SVG Version: 6.00 Build 0)  -->
<svg version="1.1" id="Calque_1" xmlns="http://www.w3.org/2000/svg" xmlns:xlink="http://www.w3.org/1999/xlink" x="0px" y="0px"
	 viewBox="0 0 35.62 37.11" style="enable-background:new 0 0 35.62 37.11;" xml:space="preserve">
<style type="text/css">
	.st0{fill:#424242;}
</style>
<path class="st0" d="M31.06,28.84l-2.51-1.33l4.34-5.61c0,0,1.63-6.4,1.63-6.59l-0.32-1.34l-5.13,0.94l-3.44,1.4L23.47,7.9
	l-3.85-5.39l-1.82-1.58L16,2.52l-3.85,5.39l-2.16,8.41l-3.44-1.4l-5.13-0.94L1.1,15.32c0.01,0.18,1.63,6.59,1.63,6.59l4.34,5.61
	l-2.52,1.32c0,0-1.99,1.74-1.99,2.05c0,0.31,2.35,2.29,2.35,2.29l6.48,2.02l3.45-0.58c0,0,0.99-0.37,1.44-0.58v1.56l1.51,1.51
	l1.51-1.51v-1.56c0.45,0.21,1.44,0.58,1.44,0.58l3.45,0.58l6.48-2.02c0,0,2.35-1.97,2.35-2.29S31.06,28.84,31.06,28.84z"/>
</svg>
