<svg id="Calque_1" data-name="Calque 1" xmlns="http://www.w3.org/2000/svg" viewBox="0 0 54.15 40"><defs><style>.cls-1{fill:#424242;}</style></defs><title>averti</title><path class="cls-1" d="M45.2,8.66l-7.65,2.75-3.61,3.32-2,5.05L31.48,25l-.58,1.88-2.45-4s0-6.94-.15-8.67-4-6.93-4-6.93L15.74,2.31,9,.58,0,0,4.19,3.18l1.59,4,1,8.66,1.44,4.91L12.85,25s5.49,1.73,6.79,2,4.62.58,4.62.58l2.6,4.19L29,40h2.38L29.89,29.6l-4-7.07-7.37-8.09-5.19-5.2,5.77,4.33,7.65,8.09L30.61,28l1.3-2.16,2.31-3.32,6.07-6.79L45.2,13,41,16.17l-5.78,6.5-4,6.64s.29,1.88.43,3.18c.12,1.07.37,5.85.58,7.51h.72l-.79-8.88,1.95-3s7.36-1,8.09-1.3S47.51,23,47.51,23L49,17.76,50.11,12l2.6-3.76,1.44-.87Z"/></svg>