<svg id="Calque_1" data-name="Calque 1" xmlns="http://www.w3.org/2000/svg" viewBox="0 0 47.7 39.17"><defs><style>.cls-1{fill:#7cbb48;}</style></defs><title>bibliotheque_vert</title><path class="cls-1" d="M6.12,33.43l-.2,2.77.94.73,8.36-.13,0-3.37Z" transform="translate(-1.18 -0.39)"/><path class="cls-1" d="M6.31,30.76l-.1,1.42h9V30.76Z" transform="translate(-1.18 -0.39)"/><path class="cls-1" d="M15.17,8.41l.06-3.26-.8-.23L8.14,4.58l-1.9.57,0,3.26Z" transform="translate(-1.18 -0.39)"/><path class="cls-1" d="M6.27,9.66l.16,19.5,0,.35h8.76l-.1-15.28.09-4.57Z" transform="translate(-1.18 -0.39)"/><path class="cls-1" d="M22.53,32.32l-3.92,0-.09,3.86,1.2.69h6.63l.74-1L27,32.37Z" transform="translate(-1.18 -0.39)"/><path class="cls-1" d="M22.53,30.59l4.5.05L27,29l-6.48-.15L18.69,29l0,1.68Z" transform="translate(-1.18 -0.39)"/><path class="cls-1" d="M27.06,3.49l0-2.48L26.53.39H19.59L19,.75,19,3.52Z" transform="translate(-1.18 -0.39)"/><path class="cls-1" d="M27,7.4l0-2.23-7.93,0,.07,2.22Z" transform="translate(-1.18 -0.39)"/><path class="cls-1" d="M27,8.65l-7.83,0-.43,18.84,4.52.13L27,27.49l-.12-10Z" transform="translate(-1.18 -0.39)"/><path class="cls-1" d="M33,12.51l7.92-1.65L40.1,7.53,39.44,7,29.2,9.58l-.33.85.92,3.17Z" transform="translate(-1.18 -0.39)"/><path class="cls-1" d="M40.9,31.78l-6.15,1.59.72,3.3,1,.25,9.76-2.45.43-1-.84-3Z" transform="translate(-1.18 -0.39)"/><path class="cls-1" d="M44.44,25.67l-1.69-6.75-1.39-6-3.62,1.21L30.42,15.8l2,6.94,1.84,8.39,3.64-.85,7.25-2.1Zm-9.06-1.76-.92,0-1.63-5.95,3.31-1.25,2.4-.24,1.63,5.95Z" transform="translate(-1.18 -0.39)"/><path class="cls-1" d="M48.88,39.33l-21.82.23L1.18,39.33,2,38.26l21.58.24,24.5-.24.79.53Z" transform="translate(-1.18 -0.39)"/></svg>