<?xml version="1.0" encoding="utf-8"?>
<!-- Generator: Adobe Illustrator 24.0.2, SVG Export Plug-In . SVG Version: 6.00 Build 0)  -->
<svg version="1.1" id="Calque_1" xmlns="http://www.w3.org/2000/svg" xmlns:xlink="http://www.w3.org/1999/xlink" x="0px" y="0px"
	 viewBox="0 0 49.34 39.56" style="enable-background:new 0 0 49.34 39.56;" xml:space="preserve">
<style type="text/css">
	.st0{fill:#FFFFFF;}
</style>
<path class="st0" d="M6.12,33.43l-0.2,2.77l0.94,0.73l8.36-0.13l-0.03-3.37H6.12z"/>
<path class="st0" d="M6.31,30.76l-0.1,1.41h8.97l-0.01-1.41H6.31z"/>
<path class="st0" d="M15.17,8.41l0.06-3.26l-0.8-0.23L8.14,4.58l-1.9,0.57l0.03,3.26H15.17z"/>
<path class="st0" d="M6.27,9.66l0.16,19.49L6.4,29.51h8.76l-0.1-15.28l0.09-4.57H6.27z"/>
<path class="st0" d="M22.53,32.32l-3.92,0.04l-0.09,3.85l1.19,0.69h6.63l0.74-0.98l-0.04-3.56L22.53,32.32z"/>
<path class="st0" d="M22.53,30.59l4.5,0.05l-0.02-1.6l-6.48-0.15l-1.84,0.06l-0.04,1.68L22.53,30.59z"/>
<path class="st0" d="M27.06,3.49l0.03-2.48l-0.56-0.62h-6.94l-0.63,0.36l0.09,2.77L27.06,3.49z"/>
<path class="st0" d="M27,7.4l0.03-2.24L19.1,5.2l0.07,2.22L27,7.4z"/>
<path class="st0" d="M26.98,8.65l-7.84,0.02l-0.42,18.85l4.51,0.13l3.75-0.16l-0.12-10.04L26.98,8.65z"/>
<path class="st0" d="M32.96,12.51l7.92-1.64L40.1,7.53l-0.66-0.53L29.2,9.58l-0.33,0.85l0.92,3.17L32.96,12.51z"/>
<path class="st0" d="M40.9,31.78l-6.15,1.59l0.73,3.3l0.97,0.25l9.76-2.45l0.43-0.98l-0.85-3.02L40.9,31.78z"/>
<path class="st0" d="M44.44,25.67l-1.7-6.75l-1.39-5.99l-3.61,1.21l-7.32,1.66l2,6.94l1.84,8.4l3.63-0.86l7.26-2.1L44.44,25.67z
	 M35.38,23.91l-0.92-0.01l-1.63-5.96l3.31-1.24l2.4-0.25l1.63,5.96L35.38,23.91z"/>
<path class="st0" d="M48.88,39.33l-21.82,0.24L1.18,39.33l0.83-1.06l21.58,0.24l24.49-0.24l0.79,0.53V39.33z"/>
</svg>
