<svg id="Calque_1" data-name="Calque 1" xmlns="http://www.w3.org/2000/svg" viewBox="0 0 20 43"><defs><style>.cls-1{fill:#fff;}</style></defs><title>bonhomme_blanc</title><path class="cls-1" d="M15,1.34A4.25,4.25,0,0,1,17.36.65a5.57,5.57,0,0,1,2.42.63,4.18,4.18,0,0,1,1.31,3.44c-.24,1.85-.72,2.47-1.71,3.14a3.87,3.87,0,0,1-4,0,3.37,3.37,0,0,1-2.07-3.35A7,7,0,0,1,15,1.34Z" transform="translate(-3.28 -0.65)"/><path class="cls-1" d="M23.17,22.34S21,20.43,20.68,20.12s-1.51-2.41-2.41-3.64a14.33,14.33,0,0,0,.32-2.11,21,21,0,0,0,.08-3.24,1.33,1.33,0,0,0-.67-1,16.6,16.6,0,0,0-3.91-.75c-.86-.24-2.61,1.08-3.28,1.32s-4.33,4.06-4.33,4.06A8.81,8.81,0,0,0,5.42,17.2c0,.68-1.29,5.66-1.29,5.66l-.56,1.83,3.83.67v-.49l1.52-7A6.77,6.77,0,0,1,11,16.18c.92-.31.55-.12.55-.12a33,33,0,0,1-1.37,4,44.94,44.94,0,0,0-1.34,5.25S7.25,34,7.19,34.69a58.64,58.64,0,0,1-3.63,7.38,2.37,2.37,0,0,0-.24,1.56H8.56s3.82-8.77,3.82-9.33A18.9,18.9,0,0,1,13,30.89l.56.53s2.75,1.76,3,2.1a2.84,2.84,0,0,1,.83,1.7c0,.56-.36,6.74-.42,7.11s-.31,1.29-.31,1.29,5.17.11,4.87-.08,0-1.48,0-1.48-.18-9-.14-9.23a3.7,3.7,0,0,0-.66-2.35s-4.43-4.07-4.86-4.26,0-1.23,0-1.23a19.34,19.34,0,0,1,.9-3.74l4,4a19,19,0,0,0,2.44-2A.91.91,0,0,0,23.17,22.34Z" transform="translate(-3.28 -0.65)"/></svg>