<svg id="Calque_1" data-name="Calque 1" xmlns="http://www.w3.org/2000/svg" viewBox="0 0 39 40"><defs><style>.cls-1{fill:#7cbb48;}</style></defs><title>botaniste_vert</title><path class="cls-1" d="M37.36,26.61c-.74-.38-3.33-2.27-3.33-2.27l-3.14-1.13s-2.77.37-3.51.56-2.77,3.58-2.77,3.58v1l.28,1.92.1.29a9.76,9.76,0,0,0-2.4,1.89l.74-10.18L28.14,20l2.77-4.91.75-3.77V5.1L31.47,0l-3,3.85L24.3,6.23a21.26,21.26,0,0,0-4.25,1.51,15.29,15.29,0,0,0-3.15,2.45c-.92.76-2.07,5.1-2.07,5.1l1.3,3.77,1.11,1.51,1.11.56-.75,7.18L16.49,27l-.92-2.27-1.85-1.37-3.33-.22-3.16,1-3.69,3-2.95.57s1.29.76,1.85,1.13S6.14,33,6.14,33l3.5,2.26h3.7l2.59-1.89.93-2,.37.37-.57,6.32.63.61.81-7.61-5-2.64-4.62-.75,4.81-.38,4.83,1.89.92-8.48,2.74-6.35,5.11-4.53-4.22,5L20.18,21.7,18.7,34.53,19,39.76,20,40l1.67-.57L23,36.23,24.81,34l1.11-.57,1.48,1.33,2.39.57,2.59-.2,2.4-1.89,3.33-4.71,1.48-1.33A8.66,8.66,0,0,1,37.36,26.61Zm-5.88,1.72-3.33,1.36-2.44,1.47L24.6,32l-.89.8-1.33,1.36v-.8l1-1,.88-.79.89-.57,2.67-1.81,3.44-1.24,3.55-.12Z" transform="translate(-0.59)"/></svg>