<svg id="Calque_1" data-name="Calque 1" xmlns="http://www.w3.org/2000/svg" viewBox="0 0 33.06 39.17"><defs><style>.cls-1{fill:#424242;}</style></defs><title>carte</title><path class="cls-1" d="M10.49,17.8c1.19,1.34,1.57,1.45,1.92,1.45s.74-.11,1.93-1.45a30.53,30.53,0,0,0,2.28-2.92c1.18-1.7,3.17-4.89,3.17-7.19A7.32,7.32,0,0,0,17.63,2.5,7.38,7.38,0,0,0,7.2,2.5,7.28,7.28,0,0,0,5,7.69c0,2.16,1.72,5.11,3.17,7.19a29.33,29.33,0,0,0,2.28,2.92ZM9.41,7.64a3,3,0,0,1,1.88-2.8A3,3,0,0,1,13,4.67a3,3,0,0,1,2.39,2.38,3,3,0,0,1-.17,1.75,3,3,0,0,1-1.12,1.36,3.08,3.08,0,0,1-1.69.51,2.94,2.94,0,0,1-1.17-.23A3,3,0,0,1,9.63,8.8a2.87,2.87,0,0,1-.24-1.16Z" transform="translate(0 -0.34)"/><path class="cls-1" d="M31.86,12.76H21.25l-.24.32c0,.06-4.24,5.54-5.12,6.59-1.08,1.3-2.1,2.16-3.48,2.16s-2.41-1-3.49-2.21c-.82-.92-5.06-6.5-5.1-6.56l-.25-.32H1.41A1.4,1.4,0,0,0,0,14.05V38.22a1.34,1.34,0,0,0,.45.93,1.35,1.35,0,0,0,1,.36H31.86a1.18,1.18,0,0,0,.48-.1,1.38,1.38,0,0,0,.4-.28,1.3,1.3,0,0,0,.25-.42,1.17,1.17,0,0,0,.07-.49V14.07a1.25,1.25,0,0,0-.32-.91,1.28,1.28,0,0,0-.4-.29A1.16,1.16,0,0,0,31.86,12.76Zm-6.39,4.31,2.22,2.81-3.1,2.4-2.2-2.83ZM8.29,34.88,6.1,32l3.1-2.4,2.21,2.84Zm5.4-4.2L11.5,27.84l3.1-2.4,2.21,2.84Zm3.24-7L20,21.25l2.21,2.83-3.1,2.4ZM29.72,35l-2,2-2.66-2.66-2.66,2.66-2-2,2.67-2.65-2.78-2.77,2-2,2.77,2.77,2.78-2.77,2,2L27.07,32.3Z" transform="translate(0 -0.34)"/></svg>