<?xml version="1.0" encoding="utf-8"?>
<!-- Generator: Adobe Illustrator 24.0.2, SVG Export Plug-In . SVG Version: 6.00 Build 0)  -->
<svg version="1.1" id="Calque_1" xmlns="http://www.w3.org/2000/svg" xmlns:xlink="http://www.w3.org/1999/xlink" x="0px" y="0px"
	 viewBox="0 0 36.13 36.19" style="enable-background:new 0 0 36.13 36.19;" xml:space="preserve">
<style type="text/css">
	.st0{fill:#424242;}
</style>
<path class="st0" d="M8.84,21.3l4.96,5.98l4.7,0.92l5.29-2.17l3.84-4.96c0,0-0.08-6.4-0.83-7.52c-0.75-1.12-5.26-5.22-6.11-5.26
	s-6.4,0.8-6.4,0.8l-4.14,3.74L8.55,15.8L8.84,21.3z"/>
<path class="st0" d="M18.8,29.98l-0.95-0.13c0,0-0.61,0.16-0.75,0.66c-0.14,0.5,0.11,2.5,0.11,2.5l-0.12,2.49
	c0,0,0.76,0.74,1.17,0.66c0.41-0.08,0.91-0.49,0.91-0.49l-0.09-1.46l0.17-3.58L18.8,29.98z"/>
<path class="st0" d="M35.74,16.99l-2.76,0.14l-2.49-0.14c0,0-0.75,0.76-0.67,1.17c0.08,0.41,0.48,0.91,0.48,0.91l1.46-0.08l3.58,0.2
	l0.67-0.45l0.13-0.95L35.74,16.99z"/>
<path class="st0" d="M13.06,28.7c-0.45,0.04-0.83,0.53-0.83,0.53l-0.11,0.58l-0.69,1.58l0.17,1.09l0.76,0.43l0.85-0.28l0.47-1.38
	l0.71-1.51l-0.37-0.78C14.01,28.97,13.5,28.67,13.06,28.7z"/>
<path class="st0" d="M23.77,28.99l-0.83-0.28l-0.91,0.44l-0.13,0.77l0.89,2.3l0.64,0.65l0.96-0.08l0.45-0.81l-0.2-0.86L23.77,28.99z
	"/>
<path class="st0" d="M7.03,12.44l-2.25-0.99l-0.91-0.01l-0.62,0.73l0.26,0.89l0.74,0.47l2.11,0.89l0.79-0.39l0.33-0.95L7.03,12.44z"
	/>
<path class="st0" d="M17.47,6.2l0.95,0.13c0,0,0.61-0.16,0.75-0.66c0.14-0.5-0.11-2.5-0.11-2.5l0.12-2.49c0,0-0.76-0.74-1.17-0.66
	c-0.41,0.08-0.9,0.49-0.9,0.49l0.09,1.46l-0.17,3.58L17.47,6.2z"/>
<path class="st0" d="M23.21,7.48c0.45-0.04,0.83-0.53,0.83-0.53l0.11-0.58l0.69-1.58l-0.17-1.1L23.9,3.26l-0.85,0.28l-0.47,1.38
	l-0.71,1.51l0.37,0.78C22.25,7.21,22.76,7.51,23.21,7.48z"/>
<path class="st0" d="M12.49,7.19l0.83,0.28l0.9-0.44l0.14-0.77l-0.9-2.29l-0.64-0.66L11.88,3.4l-0.45,0.82l0.2,0.86L12.49,7.19z"/>
<path class="st0" d="M32.62,13.23l0.28-0.83l-0.44-0.9l-0.76-0.14l-2.3,0.9l-0.66,0.64l0.08,0.95l0.81,0.45l0.86-0.2L32.62,13.23z"
	/>
<path class="st0" d="M6.12,21.81l-2.19,1.12l-0.59,0.7l0.01,0.03c0.11,0.57,0.49,1.05,1.02,1.28l0.83-0.28l2.03-1.07l0.2-0.86
	l-0.52-0.86L6.12,21.81z"/>
<path class="st0" d="M6.08,19.04l0.35-0.95c0,0,0.16-0.98-0.35-1.06c-0.5-0.08-4.64,0-5.02,0c-0.39,0-0.84,0.41-0.84,0.41L0,18.09
	l0.11,0.47l0.49,0.49l4.34,0.17L6.08,19.04z"/>
<path class="st0" d="M8.35,26.34c-0.23,0.29-3.41,3.7-5.34,5.44c0,0-0.16,0.66-0.09,0.81c0.08,0.16,0.64,0.58,0.64,0.58l1.07-0.08
	l1.25-1.46l4.17-4.01l0.11-0.95L9.68,26.1C9.42,26.03,8.58,26.04,8.35,26.34z"/>
<path class="st0" d="M27.84,26.34c-0.47-0.39-1.39-0.17-1.39-0.17l-0.42,0.71l0.11,0.69l0.2,0.28c0,0,4.3,4.23,4.61,4.47
	c0.31,0.25,0.73,0.78,0.99,0.95c0.25,0.18,1.22-0.4,1.22-0.4l0.11-1.02l-2.63-2.85C30.63,28.99,28.31,26.72,27.84,26.34z"/>
<path class="st0" d="M27.81,9.67c0.23-0.29,3.41-3.7,5.34-5.44c0,0,0.16-0.66,0.09-0.81c-0.08-0.16-0.64-0.58-0.64-0.58l-1.07,0.08
	l-1.25,1.46l-4.17,4.01l-0.11,0.95l0.47,0.58C26.74,9.98,27.59,9.96,27.81,9.67z"/>
<path class="st0" d="M8.32,9.67c0.47,0.39,1.39,0.17,1.39,0.17l0.42-0.71l-0.11-0.69l-0.2-0.28c0,0-4.3-4.23-4.61-4.47
	C4.9,3.45,4.47,2.92,4.22,2.75C3.96,2.57,3,3.15,3,3.15L2.9,4.17l2.63,2.85C5.53,7.02,7.85,9.28,8.32,9.67z"/>
<path class="st0" d="M28.69,22.82l0.28,0.9l0.86,0.37l1.7,0.78l1.01-0.26l0.42-0.7l-0.61-1.17L29.99,22l-0.45-0.11l-0.61,0.37
	L28.69,22.82z"/>
</svg>
