<svg id="Calque_1" data-name="Calque 1" xmlns="http://www.w3.org/2000/svg" viewBox="0 0 33.69 35"><defs><style>.cls-1{fill:#79c143;}</style></defs><title>feuille-vert</title><path class="cls-1" d="M3.51,32c-.08-.8-1.36-7.29-1.36-7.29s1.28-7.84,1.7-9.33S5,14,5,14A34.63,34.63,0,0,1,6.39,18c.51,1.88.26,7.84,0,8.94l-.93,4.07a4.64,4.64,0,0,0,.81-.8c.51-.59,4.07-3.57,4.07-3.57S9.62,25,9.28,24.1a39.85,39.85,0,0,1-.85-9.54,53.32,53.32,0,0,1,1.78-7.75s.68-1.39,1-1.19,2,6.56,2,6.56v8.54s-1.86,4.86-1.44,4.57,4.41-4.77,4.41-4.77,1.36-1.19,0-2.18c-.56-.41-1.53-4.87-1.53-4.87l.34-7a41.73,41.73,0,0,1,1.42-5.36c.45-.79,1-1.09,1.3-.69S19,4.07,19.2,4.83a31.37,31.37,0,0,1,.51,5.86c0,.79-1.34,6.55-1.35,7.25s1-.4,1-.4l.34-.79s.68-3.38,1.78-4.77,3.05-4.57,3.05-4.57,3.22-3.67,4.07-3.87,6-4.07,6-2.78a24.13,24.13,0,0,1-1.44,5s-3.47,6-3.9,6-4.36,4.56-5.68,4.86c-.84.2-3.81,1.94-3.3,2.44s6.36-1.15,7.63-1,6.87,2.09,6.7,2.79-3.85,2.67-4.5,2.68c-1.32,0-5.93,1-7.37-.2a46.34,46.34,0,0,0-3.9-2.73L16.4,22.71l-3,3a24.09,24.09,0,0,1,3.88-1.2c.76,0,6.36.4,7.12.79s4,1.59,4,1.59-.17,1-.51,1.1-5.63,2-8.64,2c-1.53,0-6.72-3.36-7.51-2.48L8.17,30.56s3.9-.4,5-.4a35.41,35.41,0,0,1,6.62,1.69c.51.3.33,1.3.33,1.3a15.29,15.29,0,0,1-4.24,2,29.44,29.44,0,0,1-8.64-.49c-.85-.4-2.63-1.49-2.63-1.49l-2.8,2.13s-1-.05-.85-.64S3.51,32,3.51,32Z" transform="translate(-0.94 -0.28)"/></svg>