<?xml version="1.0" encoding="utf-8"?>
<!-- Generator: Adobe Illustrator 24.0.2, SVG Export Plug-In . SVG Version: 6.00 Build 0)  -->
<svg version="1.1" id="Calque_1" xmlns="http://www.w3.org/2000/svg" xmlns:xlink="http://www.w3.org/1999/xlink" x="0px" y="0px"
	 viewBox="0 0 34.11 35.56" style="enable-background:new 0 0 34.11 35.56;" xml:space="preserve">
<style type="text/css">
	.st0{fill:#424242;}
</style>
<path class="st0" d="M2.99,32.26c-0.09-0.79-1.36-7.28-1.36-7.28s1.27-7.84,1.7-9.34c0.42-1.49,1.1-1.39,1.1-1.39
	s0.93,2.18,1.44,4.07c0.51,1.89,0.26,7.84,0,8.94c-0.26,1.1-0.93,4.07-0.93,4.07s0.3-0.2,0.81-0.79c0.51-0.59,4.07-3.58,4.07-3.58
	s-0.72-1.69-1.06-2.58c-0.34-0.9-1.1-6.75-0.85-9.53C8.17,12.06,9.7,7.1,9.7,7.1s0.68-1.39,1.02-1.19c0.34,0.2,2.03,6.56,2.03,6.56
	V21c0,0-1.86,4.87-1.44,4.57c0.42-0.3,4.41-4.77,4.41-4.77s1.36-1.19,0-2.18c-0.57-0.41-1.53-4.87-1.53-4.87l0.34-6.95
	c0,0,0.96-4.57,1.41-5.36c0.45-0.79,1.04-1.09,1.3-0.69c0.25,0.4,1.2,3.61,1.44,4.37c0.41,1.29,0.51,5.07,0.51,5.86
	c0,0.79-1.33,6.56-1.34,7.25c-0.01,0.69,1.01-0.4,1.01-0.4l0.34-0.79c0,0,0.68-3.38,1.78-4.77c1.1-1.39,3.05-4.57,3.05-4.57
	s3.22-3.67,4.07-3.87c0.85-0.2,6.02-4.07,6.02-2.78c0,1.29-1.44,4.97-1.44,4.97s-3.48,5.96-3.9,5.96c-0.42,0-4.36,4.57-5.68,4.87
	c-0.85,0.19-3.82,1.94-3.31,2.43c0.51,0.5,6.36-1.14,7.63-1.04c1.27,0.1,6.87,2.09,6.7,2.78c-0.17,0.69-3.85,2.67-4.49,2.68
	c-1.33,0.02-5.94,0.99-7.38-0.2c-1.44-1.19-3.9-2.73-3.9-2.73L15.88,23l-3.03,2.99c0,0,3.12-1.2,3.88-1.2c0.76,0,6.36,0.4,7.12,0.79
	c0.76,0.4,3.98,1.59,3.98,1.59s-0.17,0.98-0.51,1.09c-0.21,0.07-5.64,2.05-8.65,1.99c-1.53-0.03-6.71-3.37-7.5-2.48l-3.52,3.08
	c0,0,3.9-0.4,5-0.4s6.1,1.39,6.61,1.69c0.51,0.3,0.34,1.29,0.34,1.29s-2.37,1.59-4.24,1.99s-7.8-0.1-8.65-0.5
	c-0.85-0.4-2.63-1.49-2.63-1.49l-2.8,2.13c0,0-1.02-0.05-0.85-0.64C0.61,34.33,2.99,32.26,2.99,32.26z"/>
</svg>
