<?xml version="1.0" encoding="utf-8"?>
<!-- Generator: Adobe Illustrator 24.0.2, SVG Export Plug-In . SVG Version: 6.00 Build 0)  -->
<svg version="1.1" id="Calque_1" xmlns="http://www.w3.org/2000/svg" xmlns:xlink="http://www.w3.org/1999/xlink" x="0px" y="0px"
	 viewBox="0 0 29.17 34.87" style="enable-background:new 0 0 29.17 34.87;" xml:space="preserve">
<style type="text/css">
	.st0{fill:#EBEDEE;}
	.st1{fill:#424242;}
</style>
<path class="st0" d="M2.36-0.13c0.12,0.06,0.12,0.12,0,0.17C2.36-0.02,2.36-0.08,2.36-0.13z"/>
<path class="st0" d="M2.77,4.16c0.03,0.05,0.07,0.09,0.11,0.14C2.85,4.25,2.81,4.2,2.77,4.16z"/>
<path class="st1" d="M10.2,34.8l4.98,0.48h0.02v-8.76c0,0,6.27-0.91,10.37-4.66c1.47-1.35,3.61-9.83,3.61-9.83
	c-0.97-0.48-9.65,6.88-9.65,6.88c-1.02,0.23-4.45,5.39-4.45,5.39v-7c0,0,3.4,0,4.85-3.26c1.45-3.26,1.7-6.64,1.7-8.81
	S19.8,1.13,19.8,1.13s-2.92,2.29-3.89,2.41c-0.97,0.12-2.67-3.26-2.67-3.26L10.82,3.3c0,0-0.85,1.33-2.19-0.48
	c-1.34-1.81-2.3-1.69-2.3-1.69s-1.94,2.9-1.34,9.17c0.11,1.18,2.91,4.95,2.91,4.95l3.76,2.41l-0.69,6.15c0,0-1.26-0.59-1.74-2.65
	c-0.49-2.05-2.59-4.61-2.59-4.61L0,11.15l1.21,7.6l2.99,4.81l6.37,2.97L10.2,34.8z"/>
</svg>
