<svg id="Calque_1" data-name="Calque 1" xmlns="http://www.w3.org/2000/svg" viewBox="0 0 33 40"><defs><style>.cls-1{fill:#fff;}</style></defs><title>fleur_menu</title><path class="cls-1" d="M13.54,39.45l5.63.55h0V30s7.09-1,11.73-5.33C32.58,23.12,35,13.43,35,13.43c-1.1-.55-10.92,7.86-10.92,7.86-1.15.26-5,6.16-5,6.16v-8a6.31,6.31,0,0,0,5.49-3.72A25.21,25.21,0,0,0,26.46,5.66,8,8,0,0,0,24.4,1S21.1,3.59,20,3.72,17,0,17,0L14.24,3.45s-1,1.51-2.48-.55S9.16,1,9.16,1,7,4.28,7.64,11.45c.13,1.35,3.3,5.66,3.3,5.66l4.26,2.75-.78,7a4.36,4.36,0,0,1-2-3A17.14,17.14,0,0,0,9.52,18.6L2,12.42l1.37,8.69L6.76,26.6,14,30Z" transform="translate(-2)"/></svg>