<svg id="Calque_1" data-name="Calque 1" xmlns="http://www.w3.org/2000/svg" viewBox="0 0 29.17 35"><defs><style>.cls-1{fill:#79c143;}</style></defs><title>fleur-vert</title><path class="cls-1" d="M15.36,34.8l5,.48h0V26.52s6.27-.91,10.37-4.66C32.19,20.51,34.33,12,34.33,12c-1-.48-9.65,6.88-9.65,6.88-1,.23-4.45,5.39-4.45,5.39v-7A5.57,5.57,0,0,0,25.08,14a21.8,21.8,0,0,0,1.7-8.81A7,7,0,0,0,25,1.13S22,3.42,21.08,3.54,18.4.28,18.4.28L16,3.3s-.86,1.32-2.19-.49-2.31-1.68-2.31-1.68S9.54,4,10.15,10.3c.11,1.18,2.91,4.95,2.91,4.95l3.76,2.41-.69,6.15a3.82,3.82,0,0,1-1.74-2.65,15,15,0,0,0-2.58-4.6L5.16,11.15l1.21,7.6,3,4.81,6.37,3Z" transform="translate(-5.16 -0.28)"/></svg>