<?xml version="1.0" encoding="utf-8"?>
<!-- Generator: Adobe Illustrator 24.0.1, SVG Export Plug-In . SVG Version: 6.00 Build 0)  -->
<svg version="1.1" id="Calque_1" xmlns="http://www.w3.org/2000/svg" xmlns:xlink="http://www.w3.org/1999/xlink" x="0px" y="0px"
	 viewBox="0 0 50 45" style="enable-background:new 0 0 50 45;" xml:space="preserve">
<style type="text/css">
	.st0{clip-path:url(#SVGID_2_);}
	.st1{fill:#424242;}
</style>
<g>
	<g>
		<g>
			<g>
				<defs>
					<rect id="SVGID_1_" x="5.5" y="3.3" width="39" height="39"/>
				</defs>
				<clipPath id="SVGID_2_">
					<use xlink:href="#SVGID_1_"  style="overflow:visible;"/>
				</clipPath>
				<g class="st0">
					<path class="st1" d="M10.8,25.9v2.5l-0.2,9c0,0,1,1.5,2.1,2.1c1,0.6,3,1.7,3,1.7s1.1-0.4,0.9-1.1c-0.4-0.5-0.5-12.7-0.5-12.7
						l0.2-4.3c0,0-0.1-0.4-0.6-0.4c-0.5,0.1-3.7,1.3-3.8,1.7C11.7,24.6,10.8,25.9,10.8,25.9z"/>
					<path class="st1" d="M39,25.9l0.2,2.1v9.4c0,0-1,1.5-2.1,2.1c-1.1,0.5-2.9,1.8-2.9,1.8s-1.1-0.4-0.9-1.1c0.2-0.6,0-12.8,0-12.8
						l0.2-4.3c0,0,0.1-0.4,0.6-0.4c0.5,0.1,3.7,1.3,3.8,1.7C38,24.6,39,25.9,39,25.9z"/>
					<path class="st1" d="M44.2,25.9c0-0.1-0.2-0.2-0.4-0.4c0-1.5,0.1-4.1,0-4.2c-0.2-0.1-0.1-3.1-0.4-4C43,16.5,40.2,11,40.2,11
						s-4.8-4.5-4.3-4.2c0.5,0.4-4.8-2.1-5-2.2c0,0-3.5-0.8-6.7-0.9c-3.2,0-6,1.3-7.2,1.9c-1.3,0.4-5.1,3.3-5.1,3.3s-3.2,3.1-3.7,4
						c-0.5,0.8-1.5,4.8-1.8,5.7c-0.2,0.9-0.4,3.3-0.4,3.3l0.4,3.8C6.2,25.7,6,26,6,26c-0.1,0.2-0.4,5.2-0.4,5.2s0,5.3,0,5.7
						c0,0.4,1.5,1,2.4,1.2c1,0.2,2.2-0.8,2.2-0.8v-9.7c0,0-0.1-1.7-0.4-2.3c-0.1-0.4-0.5-0.4-1-0.4c-0.2,0-0.4-0.2-0.4-0.4
						c0.1-0.8-0.1-3.2,0-4c0.2-2.1,0.8-4.1,1.4-5.5c0.8-1.4,3.3-4,5.8-5.7c2.7-1.8,5.5-2.5,8.5-2.7c3-0.2,7.7,1.2,7.7,1.2
						s3.7,2,6.5,6.1c2.8,4.1,2.2,5.1,2.5,6.8c0.2,1,0.1,4.2,0.1,4.2s-1-0.4-1.2,0.4c-0.2,0.6-0.4,2.3-0.4,2.3v9.6c0,0,1.2,1,2.2,0.8
						c0.9-0.2,2.4-0.9,2.4-1.2c0-0.4,0-5.7,0-5.7S44.2,26.3,44.2,25.9z"/>
					<path class="st1" d="M24.5,7.9c2.4,0,7,0.5,9.2,2.8c2.2,2.1,3.5,3.9,3.5,3.9l-2.1,1.2c0,0-1.3-2.1-3-3.1
						c-1.7-1.1-4.8-2.1-6.2-2.1c-1.4,0-3.8-0.1-5.8,0.5c-2,0.8-4.2,2.1-4.7,3.1c-0.4,1-0.9,1.7-0.9,1.7l-2.3-0.8
						c0,0,0.5-2.4,1.7-3.1c1.1-0.6,3.7-2.7,5.2-3.2C20.7,8.3,24.5,7.9,24.5,7.9z"/>
				</g>
			</g>
		</g>
	</g>
</g>
</svg>
