<svg id="Calque_1" data-name="Calque 1" xmlns="http://www.w3.org/2000/svg" viewBox="0 0 35.01 35.75"><defs><style>.cls-1{fill:#79c143;}</style></defs><title>hiver-vert-petit</title><path class="cls-1" d="M36.2,17.8a3.51,3.51,0,0,0-.56-1.05,7.43,7.43,0,0,0-2,0s1-1.86,1-2a10.59,10.59,0,0,0-.53-1l-1-.09a5.9,5.9,0,0,0-.77,1c-.24.44-.86,1.69-.86,1.69L27,16.73c.33-.69.91-1.86,1-2.11s.14-1.13-.07-1.26-1.81-.65-2.62-.93l2.5-2.56,3.58.38a5.58,5.58,0,0,0,.72-.88c.15-.3-.38-1.13-.38-1.13L29.81,8l1.44-1.89a5.18,5.18,0,0,0-.33-1,4.71,4.71,0,0,0-1.07-.23L28.38,6.34l-.73-2.4-.85-.19s-.69.46-.76.87A25.73,25.73,0,0,0,26.71,8l-2.83,3.08c-.17-.53-.75-2.29-.84-2.62s-.68-.9-.92-.83S20,8.68,19.41,9c0-2.33,0-4-.05-4l2.9-1.79.19-1.11-.92-.86L19.24,2.36,19.38.41,18.52-.1a3.54,3.54,0,0,0-1,.57,8.3,8.3,0,0,0,0,2s-1.82-1.06-1.92-1.06a10,10,0,0,0-1,.55l-.09,1a6.11,6.11,0,0,0,.95.79c.43.24,1.65.88,1.65.88S17.27,7,17.43,9c-.67-.34-1.8-.92-2-1.06s-1.11-.14-1.24.08-.73,2.11-1,2.84L10.65,8.27,11,4.61a5.28,5.28,0,0,0-.87-.73c-.29-.15-1.1.38-1.1.38l-.23,2L7,4.76A5.24,5.24,0,0,0,6,5.1a5.46,5.46,0,0,0-.22,1.1L7.19,7.69l-2.33.75-.19.87s.45.7.85.78A24.21,24.21,0,0,0,8.86,9.4l3.08,2.95-2.35.85L9,13.77a1.86,1.86,0,0,0,.15,1.16c.21.47.5,1.37.67,1.88L6.15,17l-1.9-3-1-.29a4.85,4.85,0,0,0-.64.77A18.93,18.93,0,0,0,3.93,17l-2.14-.2-.6.59v1a2.24,2.24,0,0,0,1,.49c.13,0,.68,0,1.48,0l-.93,1.89s.7,1.12.86,1.12a2.16,2.16,0,0,0,1.42-1.08c.28-.59.82-1.55,1-1.95l4-.06c-.33.68-.9,1.85-1,2.09S9,22,9.17,22.15s2.29.82,2.9,1c-1,1.12-2.93,2.8-2.93,2.8l-.88.12-2.53-.71L4.84,26s-.29,1.2.26,1.4,2.21.49,2.21.49a9.64,9.64,0,0,0-1.59,1.69c-.28.56.63,1.35.63,1.35l1-.09,1.26-1.34a6.38,6.38,0,0,0,.64,2,4.87,4.87,0,0,0,1.27.45l.65-1.12-.54-3.33,2.51-3,.08-.07c.18.56.74,2.26.83,2.59s.68.9.92.83,1.82-.89,2.56-1.26l.14,4-2.93,2-.28,1a5,5,0,0,0,.75.65,17.13,17.13,0,0,0,2.46-1.3L17.5,35l.58.62h1a2.37,2.37,0,0,0,.47-1c0-.14,0-.7,0-1.52l1.86.95s1.09-.71,1.09-.88a2.2,2.2,0,0,0-1.06-1.45c-.57-.29-1.51-.83-1.91-1.07,0-1.36,0-2.88-.07-4.22.63.31,2,1,2.23,1.15s1.11.14,1.23-.08.76-2.2,1-2.9c1.09,1.08,2.49,2.75,2.49,2.75l.13.9-.7,2.58.56.92s1.17.29,1.37-.27.48-2.26.48-2.26a9.41,9.41,0,0,0,1.66,1.63c.54.28,1.32-.65,1.32-.65l-.09-1-1.32-1.27s1.72-.33,1.95-.66a5.09,5.09,0,0,0,.45-1.3l-1.09-.66-3.27.55L25,23.24h0l2.56-.93.58-.57A1.83,1.83,0,0,0,28,20.58c-.2-.46-.49-1.34-.66-1.87,2.28,0,3.92,0,3.95,0L33,21.62l1.09.21.85-.95L33.8,18.55l1.91.15Zm-12-3.56s1.24.3,1.31.52a1.14,1.14,0,0,1-.11.61L24.8,16.9c-.9,0-2.3,0-3.84,0l2.79-2.85Zm-4.78-3,.66-.29s1.08-.69,1.28-.58.34.51.34.51l.71,1.79-.68.74c-.24.27-1.18,1.2-2.39,2.38,0-1.68,0-3.44,0-5ZM15,11.78s.29-1.27.51-1.34a1,1,0,0,1,.59.12l1.49.65c.05.85,0,2.43,0,4.16l-2.87-2.92Zm-3.7,3,2.08-1,.73.7c.25.23,1.12,1.15,2.23,2.33-1.77,0-3.09-.09-3.09-.09l-1.16,0Zm.24,6a1.14,1.14,0,0,1,.11-.61l.58-1.39,1.62,0c.54,0,1.46,0,2.59,0-1.2,1.18-2.35,2.32-3.13,3.12l.21-.27-.66-.26S11.62,21,11.56,20.75ZM17,24.56s-1.09.68-1.28.58a1.19,1.19,0,0,1-.35-.51L14.73,23l2.8-2.68c-.05,1.73-.09,3-.09,3l0,1Zm5.1-.84s-.29,1.27-.51,1.34a1.07,1.07,0,0,1-.6-.12l-1.53-.67c0-.81,0-1.38,0-1.55,0-.58,0-1.54,0-2.74,1.12,1.18,2.2,2.31,3,3.09Zm3.69-3-2.13,1-2.84-3.11,4.15,0Z" transform="translate(-1.19 0.1)"/></svg>