<?xml version="1.0" encoding="utf-8"?>
<!-- Generator: Adobe Illustrator 24.0.2, SVG Export Plug-In . SVG Version: 6.00 Build 0)  -->
<svg version="1.1" id="Calque_1" xmlns="http://www.w3.org/2000/svg" xmlns:xlink="http://www.w3.org/1999/xlink" x="0px" y="0px"
	 viewBox="0 0 35.62 37.11" style="enable-background:new 0 0 35.62 37.11;" xml:space="preserve">
<style type="text/css">
	.st0{fill:#424242;}
</style>
<path class="st0" d="M36.19,19.04c0,0-0.33-0.89-0.57-1.06c-0.23-0.17-2.02,0-2.02,0s1.07-1.89,1.07-1.99
	c0-0.09-0.55-1.03-0.55-1.03l-1.03-0.09c0,0-0.55,0.55-0.8,0.99c-0.25,0.44-0.89,1.7-0.89,1.7s-2.63,0.21-4.74,0.4
	c0.35-0.69,0.94-1.88,1.08-2.13c0.2-0.36,0.14-1.15-0.08-1.27c-0.16-0.09-1.87-0.66-2.71-0.95l2.58-2.59l3.7,0.38
	c0,0,0.59-0.59,0.74-0.89c0.16-0.3-0.39-1.15-0.39-1.15l-1.99-0.23l1.49-1.91c0,0-0.23-0.89-0.35-1c-0.11-0.11-1.11-0.23-1.11-0.23
	l-1.51,1.46l-0.76-2.42l-0.88-0.19c0,0-0.71,0.47-0.79,0.88c-0.08,0.41,0.69,3.46,0.69,3.46s-1.52,1.62-2.92,3.11
	c-0.18-0.54-0.78-2.31-0.87-2.65c-0.11-0.4-0.71-0.91-0.95-0.84c-0.2,0.06-2.16,1.03-2.81,1.36c0.01-2.35,0-4.05-0.04-4.09
	l2.99-1.81l0.2-1.12l-0.95-0.88l-2.37,1.17l0.15-1.97l-0.9-0.51c0,0-0.89,0.33-1.06,0.57c-0.17,0.23,0,2.02,0,2.02
	s-1.89-1.07-1.99-1.07c-0.09,0-1.03,0.55-1.03,0.55l-0.1,1.03c0,0,0.55,0.55,0.99,0.8c0.44,0.25,1.7,0.89,1.7,0.89
	s0.19,2.35,0.36,4.4c-0.69-0.35-1.86-0.93-2.11-1.07c-0.36-0.2-1.15-0.14-1.27,0.08c-0.1,0.18-0.76,2.13-1,2.88L9.78,9.4l0.38-3.7
	c0,0-0.59-0.59-0.89-0.74c-0.3-0.16-1.15,0.39-1.15,0.39L7.89,7.33L5.98,5.84c0,0-0.89,0.23-1,0.35C4.86,6.3,4.74,7.3,4.74,7.3
	L6.2,8.81L3.79,9.57L3.6,10.44c0,0,0.47,0.71,0.88,0.79c0.41,0.08,3.46-0.69,3.46-0.69s1.67,1.57,3.18,2.98l-2.43,0.86l-0.59,0.58
	c0,0-0.15,0.47,0.16,1.17c0.21,0.47,0.52,1.39,0.69,1.91l-3.8,0.13l-1.97-3.03l-0.99-0.29c0,0-0.59,0.59-0.66,0.78
	c-0.07,0.19,1.31,2.54,1.31,2.54l-2.21-0.2L0,18.58v1.03c0,0,0.4,0.36,1.06,0.49c0.14,0.03,0.71,0.04,1.53,0.04l-0.96,1.92
	c0,0,0.72,1.13,0.89,1.13c0.17,0,1.1-0.33,1.47-1.1c0.29-0.59,0.84-1.56,1.08-1.97c1.34-0.01,2.83-0.04,4.17-0.06
	c-0.35,0.69-0.93,1.87-1.07,2.12c-0.2,0.36-0.14,1.15,0.08,1.27c0.19,0.11,2.37,0.83,3,1.04c-1.05,1.14-3.03,2.83-3.03,2.83
	l-0.9,0.13l-2.62-0.72L3.77,27.3c0,0-0.3,1.21,0.27,1.41c0.57,0.2,2.29,0.5,2.29,0.5s-1.36,1.15-1.65,1.71
	c-0.28,0.57,0.66,1.36,0.66,1.36l1.05-0.09l1.3-1.36c0,0,0.33,1.77,0.66,2.02c0.33,0.25,1.31,0.46,1.31,0.46l0.67-1.13l-0.57-3.37
	l2.6-3.01l0.08-0.07c0.19,0.57,0.76,2.29,0.86,2.62c0.11,0.4,0.71,0.91,0.95,0.84c0.19-0.05,1.89-0.9,2.65-1.28l0.14,4.05
	l-3.03,1.97l-0.29,0.99c0,0,0.59,0.59,0.78,0.66c0.19,0.07,2.54-1.31,2.54-1.31l-0.2,2.21l0.6,0.62h1.03c0,0,0.36-0.4,0.49-1.06
	c0.03-0.14,0.04-0.71,0.04-1.53l1.92,0.96c0,0,1.13-0.72,1.13-0.89c0-0.17-0.33-1.1-1.1-1.47c-0.59-0.29-1.56-0.84-1.97-1.08
	c-0.01-1.38-0.04-2.92-0.07-4.28c0.64,0.32,2.03,1.01,2.3,1.17c0.36,0.2,1.15,0.14,1.27-0.08c0.11-0.18,0.78-2.23,1.02-2.93
	c1.12,1.09,2.58,2.79,2.58,2.79l0.13,0.9l-0.72,2.62l0.58,0.93c0,0,1.21,0.3,1.41-0.27c0.2-0.57,0.5-2.29,0.5-2.29
	s1.15,1.36,1.71,1.65c0.57,0.28,1.36-0.66,1.36-0.66l-0.09-1.05l-1.36-1.29c0,0,1.77-0.33,2.02-0.66c0.25-0.33,0.46-1.31,0.46-1.31
	l-1.13-0.67l-3.37,0.57l-3.01-2.6l-0.01-0.01l2.65-0.94l0.59-0.58c0,0,0.15-0.47-0.16-1.17c-0.2-0.47-0.5-1.36-0.68-1.89
	c2.36,0.01,4.06,0,4.09-0.04l1.81,2.99l1.12,0.2l0.88-0.95l-1.17-2.36l1.97,0.15L36.19,19.04z M23.83,15.43c0,0,1.29,0.3,1.36,0.53
	c0.07,0.23-0.12,0.61-0.12,0.61l-0.66,1.55c-0.93,0.03-2.38,0.02-3.97,0l2.88-2.88L23.83,15.43z M18.89,12.4l0.68-0.3
	c0,0,1.12-0.69,1.33-0.59c0.2,0.11,0.35,0.52,0.35,0.52l0.73,1.82c-0.32,0.34-0.57,0.6-0.7,0.75c-0.25,0.27-1.22,1.22-2.47,2.41
	c0.01-1.7,0.01-3.48,0.02-5.11L18.89,12.4z M14.29,12.95c0,0,0.3-1.29,0.53-1.36c0.23-0.07,0.61,0.12,0.61,0.12l1.54,0.66
	c0.04,0.86,0.04,2.45,0.01,4.21l-2.96-2.95L14.29,12.95z M10.48,15.96l2.14-1.02c0.34,0.32,0.61,0.57,0.76,0.71
	c0.26,0.24,1.16,1.17,2.31,2.37c-1.84-0.05-3.2-0.09-3.2-0.09l-1.19,0.04L10.48,15.96z M10.72,22.03c-0.07-0.23,0.12-0.61,0.12-0.61
	l0.6-1.41c0.87-0.02,1.48-0.04,1.67-0.04c0.57-0.02,1.51-0.04,2.68-0.04c-1.24,1.19-2.42,2.35-3.23,3.16l0.21-0.27l-0.69-0.27
	C12.07,22.55,10.79,22.25,10.72,22.03z M16.34,25.88c0,0-1.12,0.69-1.33,0.59c-0.2-0.11-0.35-0.52-0.35-0.52L14,24.31l2.89-2.71
	c-0.05,1.75-0.09,3.03-0.09,3.03l0.04,1.03L16.34,25.88z M21.61,25.03c0,0-0.3,1.29-0.53,1.36c-0.23,0.07-0.61-0.12-0.61-0.12
	l-1.59-0.68c-0.02-0.82-0.04-1.4-0.04-1.57c-0.02-0.59-0.04-1.56-0.04-2.78c1.16,1.2,2.27,2.34,3.06,3.13L21.61,25.03z M25.43,22.03
	l-2.21,1.05l-2.94-3.15c1.43,0.01,2.91,0.01,4.3,0.02L25.43,22.03z"/>
</svg>
