<?xml version="1.0" encoding="utf-8"?>
<!-- Generator: Adobe Illustrator 24.0.1, SVG Export Plug-In . SVG Version: 6.00 Build 0)  -->
<svg version="1.1" id="Calque_1" xmlns="http://www.w3.org/2000/svg" xmlns:xlink="http://www.w3.org/1999/xlink" x="0px" y="0px"
	 viewBox="0 0 259.4 115.7" style="enable-background:new 0 0 259.4 115.7;" xml:space="preserve">
<style type="text/css">
	.st0{fill:none;stroke:#000000;stroke-width:2.0745;}
</style>
<path d="M203.6,22.5l-0.4,4.7l-2,1l-2.2,0.8c0,0-5.5,4.5-6.9,6.3c-1.4,1.6-3.1,7.3-3.1,7.3v6.9c0,0,3.7,10.8,2.2,12.6
	c-1.4,1.8-5.9,5.9-5.9,5.9s-2.6,2-2.6,2.9c0.2,0.8,0,3.1,0,3.1l2.2,0.6l18.7-0.6l18.3,0.6h8.4c0,0,2.6-0.8,2-3.1
	c-0.6-2.2-3.7-4.3-3.7-4.3s-6.1-4.7-6.1-6.7c0-2.2,2.9-8.8,3.3-11c0.4-2.2,0.2-10.4-1.4-13c-1.6-2.6-4.7-5.7-4.7-5.7l-4.9-2.9
	l-2.4-0.4L212,25l-1-3.3c0,0-2-1.2-3.5-0.8C206.1,20.9,203.6,22.5,203.6,22.5z"/>
<path d="M201.2,76.9h7.7l4.9,0.6c0,0-1.2,3.7-2.4,4.1c-1,0.4-3.9,1.6-4.5,1c-0.6-0.4-4.5-1.4-4.9-2.9
	C201.8,78.5,201.2,76.9,201.2,76.9z"/>
<path class="st0" d="M33.3,3h192.9c16.7,0,30.2,13.4,30.2,30.2v49.7c0,16.7-13.4,30.2-30.2,30.2H33.3C16.6,113,3.2,99.5,3.2,82.8
	V33.1C3.2,16.4,16.6,3,33.3,3z"/>
</svg>
