<?xml version="1.0" encoding="utf-8"?>
<!-- Generator: Adobe Illustrator 24.0.1, SVG Export Plug-In . SVG Version: 6.00 Build 0)  -->
<svg version="1.1" id="Calque_1" xmlns="http://www.w3.org/2000/svg" xmlns:xlink="http://www.w3.org/1999/xlink" x="0px" y="0px"
	 viewBox="0 0 50 45" style="enable-background:new 0 0 50 45;" xml:space="preserve">
<style type="text/css">
	.st0{fill:#424242;}
</style>
<g>
	<polygon class="st0" points="6.9,35.4 6.7,38.1 7.5,38.8 15.6,38.7 15.6,35.4 	"/>
	<polygon class="st0" points="7.1,32.9 6.9,34.2 15.6,34.2 15.6,32.9 	"/>
	<g>
		<polygon class="st0" points="15.5,11.4 15.6,8.3 14.8,8 8.8,7.7 7,8.3 7,11.4 		"/>
		<polygon class="st0" points="7,12.6 7.2,31.3 7.1,31.7 15.5,31.7 15.5,17 15.5,12.6 		"/>
	</g>
	<g>
		<polygon class="st0" points="23,34.3 19.3,34.4 19.2,38.1 20.3,38.7 26.7,38.7 27.4,37.8 27.4,34.4 		"/>
		<polygon class="st0" points="23,32.7 27.4,32.7 27.3,31.2 21.1,31 19.3,31.1 19.3,32.7 		"/>
	</g>
	<polygon class="st0" points="27.4,6.6 27.4,4.3 26.9,3.7 20.2,3.7 19.6,4 19.7,6.7 	"/>
	<g>
		<polygon class="st0" points="27.3,10.4 27.4,8.3 19.7,8.3 19.8,10.4 		"/>
		<polygon class="st0" points="27.3,11.6 19.8,11.7 19.4,29.7 23.7,29.8 27.3,29.7 27.2,20.1 		"/>
	</g>
	<polygon class="st0" points="32.6,15.3 40.2,13.8 39.4,10.6 38.8,10 29,12.5 28.7,13.3 29.6,16.4 	"/>
	<polygon class="st0" points="40.2,33.8 34.3,35.3 35,38.5 35.9,38.8 45.3,36.4 45.7,35.5 44.9,32.6 	"/>
	<path class="st0" d="M43.6,28L42,21.4l-1.3-5.7l-3.4,1.1l-7,1.6l1.9,6.6l1.8,8l3.5-0.8l6.9-2L43.6,28z M34.9,26.3H34l-1.6-5.7
		l3.1-1.2l2.3-0.2l1.6,5.7L34.9,26.3z"/>
	<polygon class="st0" points="47.9,41.1 26.9,41.3 2.1,41.1 2.9,40.1 23.6,40.3 47.1,40.1 47.9,40.5 	"/>
</g>
</svg>
