<?xml version="1.0" encoding="utf-8"?>
<!-- Generator: Adobe Illustrator 24.0.2, SVG Export Plug-In . SVG Version: 6.00 Build 0)  -->
<svg version="1.1" id="Calque_1" xmlns="http://www.w3.org/2000/svg" xmlns:xlink="http://www.w3.org/1999/xlink" x="0px" y="0px"
	 viewBox="0 0 107.72 82.2" style="enable-background:new 0 0 107.72 82.2;" xml:space="preserve">
<style type="text/css">
	.st0{fill:#79C143;}
</style>
<path class="st0" d="M43.63,47.3v17.31l0.85,6.81l-8.33,10.89l-13.51,0.66l-9.01-9.07c0,0-1.92-8.43-1.35-11.74
	c0.58-3.31,10.06-10.1,12.04-10.67C26.32,50.91,43.63,47.3,43.63,47.3z"/>
<path class="st0" d="M47.33,36.13l3.27-4.33c0,0-0.38-5.04-1.64-10.53c-1.26-5.49-5.81-11.74-5.81-11.74l-5.23-5.68
	c0,0-0.7-2.01,0.28-3.61c1-1.6,4.12-0.83,4.12-0.83l5.59,5.4l6.02,12.57v55.64l-6.4-8.73L47.07,47.3L47.33,36.13z"/>
<path class="st0" d="M27.92,31.12c0-0.38-3.42-6.73-3.42-6.73l17.51,9.97l-0.85-5.72c0,0-11.93-17.81-14.2-19.88
	C24.7,6.67,8.81,1.42,8.81,1.42L3.18,0.89C1.11,0.72-0.69,2.38-0.65,4.49l0.56,24.45l2.35,10.78l10.72,6.26l30.68-0.9l-0.41-2.73
	C38.98,39.32,27.92,31.42,27.92,31.12z"/>
<path class="st0" d="M64.21,47.3v17.31l-0.85,6.81l8.33,10.89l13.51,0.66l9.01-9.09c0,0,1.92-8.43,1.35-11.74
	c-0.58-3.31-10.06-10.1-12.04-10.67C81.53,50.89,64.21,47.3,64.21,47.3z"/>
<path class="st0" d="M60.52,36.13l-3.27-4.33c0,0,0.38-5.04,1.64-10.53c1.26-5.49,5.81-11.74,5.81-11.74l5.23-5.68
	c0,0,0.7-2.01-0.28-3.61c-0.98-1.6-4.12-0.83-4.12-0.83l-5.59,5.4l-6.02,12.55v55.64l6.4-8.71l0.45-16.99L60.52,36.13z"/>
<path class="st0" d="M79.93,31.12c0-0.38,3.42-6.73,3.42-6.73l-17.51,9.97l0.85-5.72c0,0,11.93-17.81,14.2-19.88
	c2.26-2.09,18.15-7.34,18.15-7.34l5.64-0.53c2.09-0.19,3.91,1.47,3.84,3.59l-0.58,24.47l-2.35,10.78l-10.72,6.26l-30.66-0.9
	l0.41-2.73C68.87,39.32,79.93,31.42,79.93,31.12z"/>
</svg>
