<svg id="Calque_1" data-name="Calque 1" xmlns="http://www.w3.org/2000/svg" viewBox="0 0 45.62 35.75"><defs><style>.cls-1{fill:#424242;}</style></defs><title>printemps-gris-petit</title><path class="cls-1" d="M19.18,20.43v7.39l.35,2.9-3.48,4.65-5.64.29L6.64,31.78a20.62,20.62,0,0,1-.56-5c.24-1.41,4.2-4.31,5-4.56S19.18,20.43,19.18,20.43Z" transform="translate(-0.67 0.1)"/><path class="cls-1" d="M20.72,15.66l1.37-1.85a34.51,34.51,0,0,0-.69-4.49A17.2,17.2,0,0,0,19,4.3L16.79,1.88A2,2,0,0,1,16.9.34C17.32-.34,18.62,0,18.62,0L21,2.29l2.52,5.37V31.41L20.8,27.68l-.19-7.25Z" transform="translate(-0.67 0.1)"/><path class="cls-1" d="M12.61,13.52c0-.17-1.43-2.87-1.43-2.87L18.5,14.9l-.36-2.44s-5-7.6-5.93-8.48S4.63.84,4.63.84L2.27.61A1.5,1.5,0,0,0,.67,2.15L.9,12.59l1,4.6,4.48,2.67,12.82-.38L19,18.31C17.23,17,12.61,13.65,12.61,13.52Z" transform="translate(-0.67 0.1)"/><path class="cls-1" d="M27.78,20.43v7.39l-.36,2.9,3.48,4.65,5.65.29,3.77-3.89a20.62,20.62,0,0,0,.56-5c-.24-1.41-4.21-4.31-5-4.56S27.78,20.43,27.78,20.43Z" transform="translate(-0.67 0.1)"/><path class="cls-1" d="M26.24,15.66l-1.37-1.85a34.51,34.51,0,0,1,.69-4.49A17,17,0,0,1,28,4.3l2.19-2.42A2,2,0,0,0,30.05.34C29.64-.34,28.33,0,28.33,0L26,2.29,23.48,7.65V31.4l2.68-3.72.18-7.25Z" transform="translate(-0.67 0.1)"/><path class="cls-1" d="M34.35,13.52c0-.17,1.42-2.87,1.42-2.87L28.46,14.9l.35-2.44s5-7.6,5.94-8.48S42.33.84,42.33.84L44.69.61a1.48,1.48,0,0,1,1.6,1.53l-.24,10.45-1,4.6-4.48,2.67-12.81-.38L28,18.31C29.72,17,34.35,13.65,34.35,13.52Z" transform="translate(-0.67 0.1)"/></svg>