<svg id="Calque_1" data-name="Calque 1" xmlns="http://www.w3.org/2000/svg" viewBox="0 0 23.6 34"><defs><style>.cls-1{fill:#79c143;}</style></defs><title>sapin-vert</title><path class="cls-1" d="M18.33.39c.36.44.7.88,1.05,1.32a39.39,39.39,0,0,0,2.56,3.48c.15.41.6.69.54,1.2l-.21.25-.17.08h0c-.34,0-.84-.18-1,.11s.27.6.49.86a44.44,44.44,0,0,0,2.52,3.69,7.64,7.64,0,0,0,1,1.55c.4,1,.23,1.28-.82,1.33-.21,0-.5-.12-.61.13s.16.4.29.58l2.17,2.92a6.12,6.12,0,0,0,1,1.42c.29.42.59.83.86,1.25.46.71.2,1.19-.64,1.25-1.28.1-1.28.1-.64,1.25.3.52.61,1,.91,1.53a4.32,4.32,0,0,0,.68,1.2c.38.73.76,1.46,1.15,2.18A1.42,1.42,0,0,1,29.78,29l-.15.19a8.3,8.3,0,0,1-2.68.16c-.7,0-1.41,0-2.11.05H20.23c-.11,0-.16,0-.13.13a17.9,17.9,0,0,0,0,2.74c0,.14,0,.27,0,.41,0,1.48-.1,1.57-1.55,1.59l-.32.05H16.85l-.37-.07a1.2,1.2,0,0,1-.55-1.16c0-.84,0-1.68,0-2.53a2.28,2.28,0,0,0,0-1c0-.1,0-.12-.09-.1a3.23,3.23,0,0,0-1.2,0H7.94a6.12,6.12,0,0,0-.74,0c-.74,0-1.1-.27-1-1l.1-.16,3.36-6.09c.08-.09.14-.18,0-.2-.56-.2-1.18.07-1.73-.22l-.15-.17-.09-.19a.11.11,0,0,0,0-.15c0-.13.07-.27.11-.4a.57.57,0,0,0,.08-.13l.78-1.07.11-.13L9,19.08l.13-.17,3.31-4.49a1.24,1.24,0,0,0-.84-.16c-.94,0-1.2-.53-.67-1.33,1.28-1.91,2.58-3.81,3.87-5.71L15,6.8c-.49-.19-1,0-1.41-.27-.21-.48.21-.78.34-1.17A.63.63,0,0,0,14.24,5l.07,0V4.86l.28-.38.12-.15C15.54,3.2,16.39,2.08,17.22,1,17.51.56,17.8.24,18.33.39Z" transform="translate(-6.2 -0.35)"/><path class="cls-1" d="M16.48,34.26l.37.07A.32.32,0,0,1,16.48,34.26Z" transform="translate(-6.2 -0.35)"/><path class="cls-1" d="M29.63,29.21l.15-.19Z" transform="translate(-6.2 -0.35)"/><path class="cls-1" d="M14.71,4.33l-.12.15Z" transform="translate(-6.2 -0.35)"/><path class="cls-1" d="M14.3,4.86v.07l-.07,0A.08.08,0,0,1,14.3,4.86Z" transform="translate(-6.2 -0.35)"/><path class="cls-1" d="M6.73,20.59a1.67,1.67,0,0,0-.08.2C6.6,20.7,6.65,20.63,6.73,20.59Z" transform="translate(-6.2 -0.35)"/><path class="cls-1" d="M6.65,21.49a1.54,1.54,0,0,1,.08.19A1.54,1.54,0,0,0,6.65,21.49Z" transform="translate(-6.2 -0.35)"/><path class="cls-1" d="M6.87,22s.06,0,.06.09l-.07,0Z" transform="translate(-6.2 -0.35)"/><path class="cls-1" d="M9.09,18.91,9,19.08Z" transform="translate(-6.2 -0.35)"/><path class="cls-1" d="M8.72,19.43l-.11.13Z" transform="translate(-6.2 -0.35)"/><path class="cls-1" d="M7.84,20.63l-.08.13A.13.13,0,0,1,7.84,20.63Z" transform="translate(-6.2 -0.35)"/><path class="cls-1" d="M7.64,21.16a.1.1,0,0,1,0,.15l-.06-.1S7.63,21.18,7.64,21.16Z" transform="translate(-6.2 -0.35)"/><path class="cls-1" d="M7.76,21.5l.16.16Z" transform="translate(-6.2 -0.35)"/><path class="cls-1" d="M9.64,21.88c.19,0,.14.12.06.21Z" transform="translate(-6.2 -0.35)"/><path class="cls-1" d="M6.33,28.18a1.4,1.4,0,0,1-.1.16A1.4,1.4,0,0,0,6.33,28.18Z" transform="translate(-6.2 -0.35)"/><path class="cls-1" d="M20.22,29.42l-.12.12C20.07,29.42,20.12,29.39,20.22,29.42Z" transform="translate(-6.2 -0.35)"/><path class="cls-1" d="M15.88,29.54a.11.11,0,0,1-.08-.1C15.89,29.42,15.93,29.43,15.88,29.54Z" transform="translate(-6.2 -0.35)"/></svg>