<?xml version="1.0" encoding="utf-8"?>
<!-- Generator: Adobe Illustrator 24.0.2, SVG Export Plug-In . SVG Version: 6.00 Build 0)  -->
<svg version="1.1" id="Calque_1" xmlns="http://www.w3.org/2000/svg" xmlns:xlink="http://www.w3.org/1999/xlink" x="0px" y="0px"
	 viewBox="0 0 23.5 34.87" style="enable-background:new 0 0 23.5 34.87;" xml:space="preserve">
<style type="text/css">
	.st0{fill:#EBEDEE;}
	.st1{fill:#424242;}
	.st2{fill:#E8EAEB;}
	.st3{fill:#DCDDDD;}
	.st4{fill:#F9FBFC;}
</style>
<path class="st0" d="M-1.51-0.13c0.12,0.06,0.12,0.12,0,0.17C-1.51-0.02-1.51-0.08-1.51-0.13z"/>
<path class="st1" d="M12.13,0.9c0.35,0.44,0.7,0.88,1.05,1.32c0.8,1.2,1.63,2.37,2.55,3.47c0.15,0.41,0.61,0.69,0.54,1.2
	c-0.07,0.08-0.14,0.16-0.2,0.24c-0.06,0.03-0.12,0.06-0.18,0.09h0c-0.34-0.01-0.83-0.19-0.98,0.1c-0.16,0.3,0.26,0.6,0.49,0.87
	c0.8,1.25,1.59,2.51,2.52,3.68c0.29,0.56,0.62,1.09,1.04,1.56c0.4,1,0.22,1.28-0.83,1.33c-0.21,0.01-0.5-0.12-0.6,0.13
	c-0.1,0.24,0.16,0.4,0.29,0.57c0.72,0.98,1.44,1.95,2.17,2.92c0.27,0.52,0.6,1,1.02,1.42c0.28,0.42,0.58,0.83,0.85,1.26
	c0.46,0.71,0.2,1.19-0.64,1.25c-1.28,0.09-1.28,0.09-0.64,1.25c0.29,0.52,0.61,1.02,0.91,1.52c0.16,0.44,0.37,0.84,0.68,1.2
	c0.38,0.73,0.76,1.46,1.15,2.18c0.18,0.33,0.35,0.66,0.26,1.05c-0.05,0.06-0.1,0.12-0.15,0.19c-0.88,0.34-1.78,0.11-2.68,0.16
	c-0.7,0.04-1.41,0.03-2.11,0.05c-0.63,0-1.25-0.01-1.89-0.01c-0.91,0.01-1.82,0.01-2.73,0.01c-0.11-0.03-0.16,0.01-0.12,0.12
	c-0.09,0.91-0.06,1.83-0.01,2.74c-0.01,0.14-0.04,0.28-0.04,0.41c-0.02,1.48-0.1,1.56-1.55,1.59c-0.11,0-0.22,0.03-0.33,0.04
	c-0.44,0-0.89,0-1.33,0c-0.12-0.02-0.24-0.05-0.37-0.07c-0.43-0.27-0.56-0.65-0.55-1.15c0.01-0.84-0.02-1.69-0.03-2.54
	c0.07-0.35,0.08-0.7-0.02-1.04c0.05-0.1,0.01-0.12-0.08-0.1c-0.4-0.11-0.8-0.07-1.2-0.03c-2.22,0-4.44,0.01-6.65,0.01
	C1.49,29.91,1.24,29.88,1,29.89c-0.74,0.03-1.1-0.27-0.97-1.04c0.03-0.05,0.07-0.11,0.1-0.16c1.12-2.03,2.24-4.06,3.36-6.09
	c0.08-0.1,0.13-0.18-0.06-0.21c-0.56-0.2-1.18,0.07-1.72-0.22c-0.05-0.05-0.1-0.11-0.15-0.16c-0.03-0.07-0.06-0.13-0.09-0.2
	c0.04-0.06,0.03-0.1-0.03-0.14c0.04-0.14,0.08-0.27,0.12-0.41c0.03-0.04,0.05-0.08,0.08-0.12c0.26-0.36,0.52-0.72,0.77-1.07
	c0.04-0.04,0.07-0.09,0.11-0.14c0.08-0.12,0.16-0.23,0.24-0.35c0.04-0.06,0.09-0.11,0.13-0.17c1.11-1.49,2.21-2.99,3.32-4.49
	c-0.34-0.23-0.6-0.15-0.84-0.16c-0.95-0.05-1.21-0.53-0.67-1.33c1.28-1.91,2.58-3.81,3.87-5.71c0.07-0.11,0.13-0.24,0.23-0.42
	C8.3,7.12,7.77,7.35,7.37,7.04C7.16,6.56,7.58,6.26,7.71,5.87c0.17-0.09,0.27-0.23,0.32-0.42L8.1,5.44L8.1,5.37
	c0.09-0.13,0.19-0.26,0.28-0.38c0.04-0.05,0.08-0.1,0.12-0.14c0.84-1.13,1.69-2.25,2.52-3.39C11.3,1.07,11.59,0.75,12.13,0.9z"/>
<path class="st2" d="M10.28,34.77c0.12,0.02,0.24,0.05,0.37,0.07C10.51,34.88,10.39,34.88,10.28,34.77z"/>
<path class="st2" d="M23.43,29.72c0.05-0.06,0.1-0.12,0.15-0.19C23.52,29.59,23.48,29.65,23.43,29.72z"/>
<path class="st2" d="M8.5,4.84c-0.04,0.05-0.08,0.1-0.12,0.14C8.42,4.94,8.46,4.89,8.5,4.84z"/>
<path class="st2" d="M8.1,5.37l0.01,0.07L8.04,5.46C8.04,5.41,8.06,5.38,8.1,5.37z"/>
<path class="st0" d="M-1.1,4.16c0.03,0.05,0.07,0.09,0.11,0.14C-1.02,4.25-1.06,4.2-1.1,4.16z"/>
<path class="st3" d="M0.52,21.1c-0.03,0.07-0.05,0.14-0.08,0.2C0.4,21.2,0.44,21.14,0.52,21.1z"/>
<path class="st3" d="M0.45,22c0.03,0.06,0.05,0.13,0.08,0.19C0.5,22.13,0.48,22.06,0.45,22z"/>
<path class="st3" d="M0.67,22.53c0.05,0.01,0.06,0.05,0.06,0.09l-0.06-0.03L0.67,22.53z"/>
<path class="st3" d="M2.89,19.42c-0.04,0.06-0.09,0.11-0.13,0.17C2.8,19.53,2.84,19.48,2.89,19.42z"/>
<path class="st3" d="M2.52,19.93c-0.04,0.05-0.07,0.09-0.11,0.14C2.44,20.02,2.48,19.98,2.52,19.93z"/>
<path class="st3" d="M1.64,21.14c-0.03,0.04-0.05,0.08-0.08,0.12C1.55,21.2,1.58,21.16,1.64,21.14z"/>
<path class="st3" d="M1.44,21.67c0.06,0.04,0.07,0.08,0.03,0.14c-0.02-0.03-0.05-0.06-0.06-0.09C1.4,21.71,1.43,21.69,1.44,21.67z"
	/>
<path class="st3" d="M1.56,22.01c0.05,0.05,0.1,0.11,0.15,0.16C1.66,22.12,1.61,22.06,1.56,22.01z"/>
<path class="st3" d="M3.43,22.39c0.19,0.02,0.14,0.11,0.06,0.21C3.47,22.53,3.45,22.46,3.43,22.39z"/>
<path class="st2" d="M0.13,28.69c-0.03,0.05-0.07,0.11-0.1,0.16C0.06,28.79,0.1,28.74,0.13,28.69z"/>
<path class="st4" d="M16.75,29.92c-0.64,1.27-1.77,2.06-2.86,2.88c-0.05-0.92-0.08-1.83,0.01-2.74c0.04-0.04,0.08-0.08,0.12-0.12
	C14.93,29.93,15.84,29.92,16.75,29.92z"/>
<path class="st2" d="M14.02,29.93c-0.04,0.04-0.08,0.08-0.12,0.12C13.86,29.93,13.91,29.9,14.02,29.93z"/>
<path class="st2" d="M9.67,30.05C9.63,30.03,9.6,30,9.59,29.95C9.68,29.93,9.73,29.94,9.67,30.05z"/>
</svg>
