<?xml version="1.0" encoding="utf-8"?>
<!-- Generator: Adobe Illustrator 24.0.1, SVG Export Plug-In . SVG Version: 6.00 Build 0)  -->
<svg version="1.1" id="Calque_1" xmlns="http://www.w3.org/2000/svg" xmlns:xlink="http://www.w3.org/1999/xlink" x="0px" y="0px"
	 viewBox="0 0 259.4 115.7" style="enable-background:new 0 0 259.4 115.7;" xml:space="preserve">
<style type="text/css">
	.st0{display:none;fill:none;stroke:#000000;stroke-width:2.0745;}
	.st1{display:none;}
	.st2{display:inline;}
	.st3{fill:#79C143;}
</style>
<path class="st0" d="M33.3,3h192.9c16.7,0,30.2,13.4,30.2,30.2v49.7c0,16.7-13.4,30.2-30.2,30.2H33.3C16.6,113,3.2,99.5,3.2,82.8
	V33.1C3.2,16.4,16.6,3,33.3,3z"/>
<polygon class="st1" points="178.9,73.3 178.6,77.7 180,78.9 193.3,78.7 193.3,73.3 "/>
<polygon class="st1" points="179.2,69.1 179,71.3 193.3,71.3 193.3,69.1 "/>
<g class="st1">
	<polygon class="st2" points="193.2,33.6 193.3,28.4 192.1,28 182.1,27.5 179.1,28.4 179.1,33.6 	"/>
	<polygon class="st2" points="179.1,35.5 179.4,66.5 179.3,67.1 193.2,67.1 193.1,42.8 193.2,35.5 	"/>
</g>
<g class="st1">
	<polygon class="st2" points="205.6,71.5 199.4,71.6 199.3,77.7 201.2,78.8 211.7,78.8 212.9,77.3 212.8,71.6 	"/>
	<polygon class="st2" points="205.6,68.8 212.8,68.9 212.7,66.3 202.4,66.1 199.5,66.2 199.5,68.9 	"/>
</g>
<polygon class="st1" points="212.8,25.7 212.9,21.8 212,20.8 201,20.8 199.9,21.4 200.1,25.8 "/>
<g class="st1">
	<polygon class="st2" points="212.7,32 212.8,28.4 200.2,28.5 200.3,32 	"/>
	<polygon class="st2" points="212.7,33.9 200.3,34 199.6,63.9 206.7,64.1 212.7,63.9 212.5,47.9 	"/>
</g>
<polygon class="st1" points="221.5,40.1 234.1,37.5 232.8,32.2 231.8,31.3 215.5,35.4 215,36.8 216.5,41.8 "/>
<polygon class="st1" points="234.1,70.7 224.3,73.2 225.5,78.5 227,78.9 242.5,75 243.2,73.4 241.9,68.6 "/>
<path class="st1" d="M239.7,61L237,50.2l-2.2-9.5l-5.7,1.9l-11.6,2.6l3.2,11l2.9,13.3l5.8-1.4l11.5-3.3L239.7,61z M225.3,58.2h-1.5
	l-2.6-9.5l5.2-2l3.8-0.4l2.6,9.5L225.3,58.2z"/>
<polygon class="st1" points="246.8,82.7 212.1,83.1 171,82.7 172.4,81 206.6,81.4 245.5,81 246.8,81.8 "/>
<path class="st3" d="M136.3,69.8l-1.5,1.3l-21.3,0.7c-1.9,0.1-3.5-1.3-3.7-3.2l-2.4-24.3l1.2-2.2l26.6,0.2l2.3,0.4L136.3,69.8z"/>
<path class="st3" d="M120.3,105.9c-20.2,0-34.4-14.8-35-15.6l-0.5-0.6L84.6,89c-0.1-0.2-3-4.9-5.2-12.4C76.2,66.1,75,56.7,75.7,51
	c0.5-3.7,2.4-11.3,5.4-16.6c2.2-3.8,4.7-6.3,8.2-10.9c6.1-8.2,19.8-14.7,30.1-14.3l23.4,0.7l1.1,0.6c1.5,0.8,11.1,8,16.9,14.4
	c2.8,3.1,5.4,8.5,7.8,16.5c1.7,5.6,2.7,10.4,2.8,10.6l0.3,1.3l-0.4,1.3c-0.1,0.4-2.5,9-5.6,18.1c-1.8,5.4-3.5,9.9-5,13.3
	c-2.4,5.6-4.3,8.2-6.6,9.5c-2.5,1.4-8.3,4-15,6.3C131,104.4,124.7,105.9,120.3,105.9z M91,84.4c2.3,2.6,15.9,10.9,29.3,10.9
	c7.1,0,24.4-5.8,29.2-8.4c0.6-0.8,1.9-5.1,6.6-19.1c2.1-6.4,3.9-12.5,4.7-15c-0.4-1.7-1.2-4.9-2.3-8.5c-2.7-8.7-4.8-11.6-5.5-12.5
	c-3.6-3.9-11.1-9.9-15.4-12.2l-21.9-1.9c-6.8-0.2-14.7,3.3-18.8,8.7C90.1,35.6,84.6,45.3,84,49.5C83,58,88.3,77.6,91,84.4z
	 M149.4,87.1c0,0,1.9-0.7,1.9-0.7C151.2,86.5,149.4,87.1,149.4,87.1z"/>
</svg>
