<svg id="Calque_1" data-name="Calque 1" xmlns="http://www.w3.org/2000/svg" viewBox="0 0 342.24 113"><defs><style>.cls-1{fill:#b4dbc8;}.cls-2{fill:#75ac8f;}</style></defs><title>suivant</title><path class="cls-1" d="M290.9,43l51.34,33.06L290.9,113H0L44.49,76.06,0,43Z"/><path class="cls-2" d="M174.16.69A5,5,0,0,1,176.72,0a6.69,6.69,0,0,1,2.68.63,3.93,3.93,0,0,1,1.44,3.44c-.27,1.85-.79,2.47-1.88,3.14a4.69,4.69,0,0,1-4.44,0c-1.61-.8-2.42-1.89-2.28-3.35S174.16.69,174.16.69Z"/><path class="cls-2" d="M183.15,21.69s-2.42-1.91-2.76-2.22-1.66-2.41-2.66-3.65a12.39,12.39,0,0,0,.35-2.1,19,19,0,0,0,.09-3.24,1.32,1.32,0,0,0-.73-1,20.13,20.13,0,0,0-4.32-.75c-1-.24-2.89,1.08-3.62,1.32s-4.79,4.06-4.79,4.06a8.44,8.44,0,0,0-1.16,2.46c0,.68-1.43,5.66-1.43,5.66L161.5,24l4.24.68v-.49l1.67-7a7.33,7.33,0,0,1,2.29-1.66c1-.31.6-.12.6-.12a30,30,0,0,1-1.52,4,43.39,43.39,0,0,0-1.47,5.25s-1.74,8.69-1.81,9.37a54.51,54.51,0,0,1-4,7.37,2.15,2.15,0,0,0-.26,1.57H167s4.21-8.77,4.21-9.33a18.1,18.1,0,0,1,.63-3.41l.63.53s3,1.76,3.37,2.1a2.74,2.74,0,0,1,.91,1.7c0,.55-.4,6.74-.46,7.11S176,43,176,43s5.7.1,5.37-.08,0-1.48,0-1.48-.2-9-.16-9.24a3.43,3.43,0,0,0-.72-2.34s-4.9-4.07-5.36-4.26,0-1.23,0-1.23a17.56,17.56,0,0,1,1-3.74l4.37,4a20.76,20.76,0,0,0,2.69-2A.86.86,0,0,0,183.15,21.69Z"/></svg>