<svg id="Calque_1" data-name="Calque 1" xmlns="http://www.w3.org/2000/svg" viewBox="0 0 88.75 112.13"><defs><style>.cls-1{fill:#42433d;}.cls-2{fill:#474843;}.cls-3{fill:#484943;}.cls-4{fill:#393a34;}</style></defs><title>trash</title><path class="cls-1" d="M4.29,31.51l.1-2.34q39.15,0,78.29,0a12,12,0,0,1,2,.33c-.15,1.68-.83,5.83-.55,6.27a33.51,33.51,0,0,0-.78,7.75l-.3,4.15c-.54.75-1.24,10.1-1.08,11.33a50,50,0,0,0-.74,8.36c-.4.57-.77,5-.57,6.57-.58.73-.52,5.17-.61,6.56A6.12,6.12,0,0,0,79.64,84c-.06,1-2,19.88-1.91,21.5l-1.15,3-3.66,3.11-1.2.46c-17.07,0-34.14-.07-51.21.06-4.58,0-7.58-1.76-9.17-6a3.81,3.81,0,0,0-.22-2.09,2.48,2.48,0,0,0-.17-.32c-.06-1,0-5.81-.65-7.14-.08-1.2-.36-7.61-.89-9.57a2.1,2.1,0,0,0,.05-1.33c-.05-.15,0-1.28-.31-1.65a54.7,54.7,0,0,0-.78-8.94c.13-1.23-.52-5.58-.58-6.57.07-1.42-.64-6.56-.72-7.75.13-1-.5-8.4-.91-9L4.78,35.71A7.38,7.38,0,0,0,4.29,31.51ZM48.58,53.09c1.61-1.26,1.63-2.52,0-3.78-.21-2.88-1.63-4.28-4.65-4-2.15.18-3.29,1.08-3.29,3.33q0,22.07,0,44.13c0,2.11,1.16,3,3.15,3.15a4.5,4.5,0,0,0,4.75-2.29c.35-.1.8-.11.81-.62s-.44-.54-.79-.66a3.15,3.15,0,0,1,0-2.28c.34-.12.78-.15.78-.65s-.44-.53-.79-.65C48.24,76.87,48.21,65,48.58,53.09ZM29.89,82.74Q28.71,66,27.53,49.18c-.23-3.17-1.22-4-4.3-3.87-2.75.14-3.5,1.1-3.33,4.38.15,2.58.39,5.15.56,7.72q1.21,17.39,2.4,34.75c.22,3,1.3,3.85,4.46,3.73,2.89-.11,3.39-1.85,3.19-4.24C30.26,88.68,30.09,85.71,29.89,82.74ZM67.57,70h0c.47-6.63.91-13.26,1.43-19.89.18-2.33.29-4.49-2.84-4.83-3.3-.35-4.42.55-4.72,4-.32,3.66-.57,7.32-.82,11Q59.49,76,58.42,91.78c-.21,3.22.72,4.07,3.87,4.12,2.76,0,3.61-1.47,3.76-3.88C66.53,84.69,67.06,77.37,67.57,70Z"/><path class="cls-2" d="M3.76,27.36c-1.09-.6-3.07.61-3.39-1a11.18,11.18,0,0,1,.5-7.3,18.54,18.54,0,0,1,2.32-3,1.28,1.28,0,0,0,1.17-.64c6-.78,12-.18,18-.37,1.17,0,2.34-.12,3.51-.18a20,20,0,0,0,6.28,0q12.06.51,24.12,0a24,24,0,0,0,6.56,0H64L80.48,15c4.91.05,7,1.62,8.27,6.28l-.09,5.47c-1.18.82-2.59.1-3.82.59a20.48,20.48,0,0,0-2.06-.19q-38.47,0-77,0A20.48,20.48,0,0,0,3.76,27.36Z"/><path class="cls-3" d="M60.72,5.35c.51,1.35,1,2.71,1.52,4.07l.08,1.2c-.09.78-.17,1.56-.26,2.34l-5.25,0c-.46-5.6-2-7.85-6.25-8.1a109.8,109.8,0,0,0-12.17,0c-3.79.18-5.87,2.5-6.14,6.29a3.28,3.28,0,0,1-.47,2c-1.72-.23-3.53.32-5.19-.54A11.8,11.8,0,0,1,33,1.2,2.48,2.48,0,0,0,34.77.49c6.8-.55,13.58-.85,20.35.29a2.08,2.08,0,0,0,1.69.9L58,2.41Z"/><path class="cls-4" d="M48.58,53.09a8.42,8.42,0,0,1,0-3.77C50.21,50.57,50.19,51.83,48.58,53.09Z"/><path class="cls-4" d="M48.58,90.05c0-.43,0-.86,0-1.3.35.12.79.14.79.65S48.92,89.93,48.58,90.05Z"/><path class="cls-4" d="M48.55,93.61c0-.42,0-.85,0-1.28.35.12.8.14.79.66S48.9,93.51,48.55,93.61Z"/></svg>